<svg width="509" height="97" viewBox="0 0 509 97" fill="none" xmlns="http://www.w3.org/2000/svg">
<path d="M81.8483 34.7368C81.8483 35.5163 81.7022 36.3202 81.4098 37.1484C81.1662 37.9766 80.8496 38.7318 80.4598 39.4139C79.8265 39.5113 79.2418 39.7305 78.7059 40.0716C78.2187 40.4126 77.829 40.6318 77.5367 40.7293C76.9033 40.8267 76.1482 40.8754 75.2712 40.8754C74.443 40.8267 73.6878 40.8267 73.0058 40.8754C71.6904 40.9729 70.3749 41.119 69.0595 41.3139C67.7928 41.5088 66.5261 41.7524 65.2594 42.0447C65.162 42.0447 65.0645 42.0691 64.9671 42.1178C64.8697 42.1178 64.8209 42.1665 64.8209 42.2639C64.8209 42.3614 64.8453 42.4588 64.894 42.5563C64.9427 42.6537 64.9671 42.7511 64.9671 42.8486C64.9671 42.9947 64.8209 43.0678 64.5286 43.0678C63.9927 43.0678 63.6273 42.8973 63.4324 42.5563C61.8734 42.946 60.3144 43.3601 58.7554 43.7986C57.1964 44.1883 55.6374 44.5781 54.0784 44.9679C53.2988 45.114 52.5193 45.2602 51.7398 45.4063C51.009 45.5525 50.2539 45.7474 49.4744 45.991C49.0846 46.0884 48.6949 46.2589 48.3051 46.5025L47.1359 47.2333C46.8923 47.1846 46.673 47.1602 46.4782 47.1602C46.2833 47.1115 46.0884 47.0871 45.8935 47.0871C45.0653 47.0871 44.1883 47.2577 43.2627 47.5987C42.337 47.891 41.5331 48.3051 40.8511 48.841H40.3395C39.8523 48.841 39.5113 48.768 39.3164 48.6218C38.878 48.5731 38.61 48.7192 38.5126 49.0603C38.4151 49.3526 38.2446 49.6205 38.001 49.8641C36.3446 50.0103 34.7125 50.3026 33.1047 50.7411C31.497 51.1796 29.9136 51.6667 28.3546 52.2027C26.7956 52.6899 25.2122 53.2014 23.6045 53.7373C22.0455 54.2245 20.4621 54.6143 18.8543 54.9066C18.6595 55.881 18.562 57.0015 18.562 58.2682C18.562 59.2426 18.6351 60.3631 18.7813 61.6298C18.9761 62.8965 19.3659 63.9684 19.9505 64.8453V64.9915C19.9505 65.2351 19.8531 65.4056 19.6582 65.503C19.4633 65.6005 19.3659 65.771 19.3659 66.0146C19.3659 67.2813 19.4877 68.4749 19.7313 69.5954C20.0236 70.716 20.3159 71.8122 20.6082 72.884C20.9006 73.9558 21.1685 75.0276 21.4121 76.0995C21.7044 77.1713 21.8506 78.2675 21.8506 79.388C21.8506 79.6803 21.8262 79.9483 21.7775 80.1919C21.7775 80.4842 21.7531 80.7765 21.7044 81.0688C21.8506 81.5073 22.0942 81.8727 22.4352 82.165C22.7762 82.4573 23.0686 82.7983 23.3122 83.1881C23.3609 83.4317 23.3852 83.6509 23.3852 83.8458V84.5766C23.3852 85.4048 23.2878 86.1356 23.0929 86.769C22.898 87.4023 22.6544 87.9869 22.3621 88.5229C22.0698 89.1075 21.7531 89.6678 21.4121 90.2037C21.0711 90.7883 20.7544 91.4217 20.4621 92.1037C19.9749 92.2012 19.5851 92.2499 19.2928 92.2499C18.562 92.2499 17.953 92.055 17.4658 91.6652C17.0274 91.2755 16.6376 90.7883 16.2966 90.2037C15.9556 89.6678 15.6145 89.1075 15.2735 88.5229C14.9812 87.9382 14.6158 87.451 14.1773 87.0613C14.226 86.8177 14.2504 86.5984 14.2504 86.4036C14.2991 86.2087 14.3235 85.9895 14.3235 85.7459C14.3235 84.7715 14.1529 83.8215 13.8119 82.8958C13.5196 81.9701 13.1786 81.0932 12.7888 80.2649C12.7401 78.6085 12.5696 76.9764 12.2772 75.3687C11.9849 73.7609 11.5708 72.1775 11.0349 70.6185C11.1323 70.0339 11.2054 69.4736 11.2541 68.9377C11.3029 68.3531 11.3272 67.7928 11.3272 67.2569C11.3272 65.844 11.2541 64.4312 11.108 63.0183C10.9618 61.6055 10.9375 60.1926 11.0349 58.7798C10.8887 58.5362 10.7426 58.3413 10.5964 58.1951C10.4503 58.0003 10.3285 57.781 10.231 57.5374H9.93872C9.20794 57.5374 8.50151 57.6105 7.81944 57.7567C7.13737 57.8541 6.4553 57.9028 5.77323 57.9028C5.52963 57.9028 5.3104 57.9028 5.11552 57.9028C4.92064 57.8541 1.92441 58.0003 1.68081 57.9515C1.1449 57.4156 0.730789 56.8066 0.438473 56.1246C0.146158 55.4425 0 54.7361 0 54.0053C0 52.9335 0.292315 51.9591 0.876946 51.0821C2.09493 50.7898 6.06555 50.2539 7.23481 49.8641C8.45279 49.4257 9.62205 48.9141 10.7426 48.3295C10.8887 47.5987 10.9618 46.8679 10.9618 46.1371C11.0105 45.4063 11.2785 44.7243 11.7657 44.0909C11.6195 43.7012 11.3759 43.3601 11.0349 43.0678C10.7426 42.7268 10.5964 42.337 10.5964 41.8985C10.5964 41.6549 10.6452 41.3383 10.7426 40.9485C11.2298 40.4126 11.5708 39.7305 11.7657 38.9023C11.9606 38.0741 12.1311 37.1971 12.2772 36.2715C12.4234 35.3458 12.5696 34.4201 12.7157 33.4945C12.9106 32.5688 13.2273 31.7406 13.6657 31.0098C13.5683 30.62 13.4952 30.2059 13.4465 29.7675C13.3978 29.2803 13.3734 28.8418 13.3734 28.452C13.3734 27.8674 13.3978 27.2828 13.4465 26.6981C13.5439 26.0648 13.6901 25.4802 13.885 24.9443C13.3491 24.3109 12.9106 23.5801 12.5696 22.7519C12.2285 21.8749 12.058 21.0224 12.058 20.1941C12.058 18.5864 12.8375 17.5633 14.3965 17.1248C14.3478 16.9299 14.2991 16.7594 14.2504 16.6133C14.2504 16.4671 14.2504 16.3209 14.2504 16.1748C14.2504 15.7363 14.3722 15.3222 14.6158 14.9324C14.8594 14.5427 15.0542 14.1529 15.2004 13.7632C14.9568 13.1298 14.835 12.5939 14.835 12.1554C14.835 11.7657 14.9081 11.4247 15.0542 11.1323C15.2004 10.7913 15.3222 10.4259 15.4196 10.0362C15.5658 9.54897 15.6632 9.1105 15.712 8.72074C15.8094 8.33099 15.9556 7.98996 16.1504 7.69764C16.3453 7.40532 16.5889 7.18609 16.8812 7.03993C17.2223 6.89377 17.7338 6.82069 18.4159 6.82069C19.4877 6.82069 20.5108 7.16173 21.4852 7.8438C22.5083 8.47715 23.2878 9.20794 23.8237 10.0362C24.3596 9.98744 24.8225 9.89 25.2122 9.74385C25.6507 9.54897 26.0404 9.37845 26.3815 9.2323C26.7712 9.08614 27.161 8.96434 27.5507 8.8669C27.9892 8.72074 28.5008 8.67202 29.0854 8.72074C29.2315 8.37971 29.4751 8.16047 29.8162 8.06303C30.2059 7.91688 30.5957 7.81944 30.9854 7.77072C31.3752 7.67328 31.7406 7.55148 32.0816 7.40532C32.4227 7.25917 32.6419 6.99121 32.7393 6.60146C32.9342 6.74761 33.1534 6.82069 33.397 6.82069C33.6406 6.82069 33.8842 6.79633 34.1278 6.74761C34.3714 6.65018 34.6394 6.60146 34.9317 6.60146C35.224 6.60146 35.4676 6.6989 35.6625 6.89377C36.9292 6.2117 38.269 5.72451 39.6818 5.4322C41.1434 5.09116 42.5806 4.89628 43.9935 4.84756C47.3551 2.99623 50.8872 1.72953 54.5899 1.04746C58.3413 0.365394 62.0927 0.0243596 65.844 0.0243596C66.38 0.0243596 66.8915 0.0243596 67.3787 0.0243596C67.9146 -0.0243596 68.4262 0 68.9134 0.0974385C69.4493 0.194877 70.0339 0.365394 70.6673 0.60899C71.3493 0.852587 72.007 1.1449 72.6404 1.48594C73.3225 1.82697 73.9558 2.21673 74.5404 2.6552C75.1251 3.04495 75.6123 3.41035 76.002 3.75138C76.3918 4.62833 76.5866 5.48091 76.5866 6.30914C76.5866 6.6989 76.5623 7.08865 76.5136 7.4784C76.4648 7.81944 76.4405 8.18483 76.4405 8.57459C76.4405 9.15922 76.5623 9.81693 76.8059 10.5477C76.6597 10.499 76.4161 10.4746 76.0751 10.4746C75.6366 10.4746 75.2712 10.5721 74.9789 10.767C74.6866 10.9618 74.4186 11.1811 74.175 11.4247C73.9314 11.6683 73.6878 11.8875 73.4443 12.0824C73.2494 12.2772 73.0545 12.3747 72.8596 12.3747C72.4699 12.3747 72.1288 12.3016 71.8365 12.1554C71.5929 12.0093 71.325 11.8631 71.0326 11.717C70.7891 11.5221 70.5211 11.3759 70.2288 11.2785C69.9365 11.1323 69.5954 11.0836 69.2057 11.1323V10.84C69.2057 10.3041 69.0352 9.96308 68.6941 9.81693C68.3531 9.62205 68.0851 9.35409 67.8903 9.01306C67.1595 8.96434 66.4287 8.8669 65.6979 8.72074C65.0158 8.57459 64.3094 8.50151 63.5786 8.50151C62.6042 8.50151 61.8491 8.84254 61.3132 9.52461C61.0696 9.42717 60.8503 9.30537 60.6555 9.15922C60.5093 9.01306 60.2901 8.96434 59.9977 9.01306H59.7785C57.1477 9.01306 54.5655 9.30537 52.0321 9.89C49.4987 10.4259 46.9897 11.108 44.505 11.9362C42.0203 12.7157 39.5357 13.5683 37.051 14.494C34.5663 15.4196 32.0816 16.2235 29.5969 16.9056C29.0123 17.6851 28.4033 18.2697 27.77 18.6595C27.1366 19.0005 26.5033 19.2928 25.8699 19.5364C25.2853 19.78 24.7007 20.0236 24.116 20.2672C23.5314 20.5108 23.0198 20.9006 22.5814 21.4365C22.1916 21.9724 21.8749 22.7275 21.6313 23.7019C21.4365 24.6276 21.3877 25.9186 21.4852 27.5751C21.2416 27.8674 21.0954 28.1841 21.0467 28.5251C20.998 28.8661 20.9493 29.2072 20.9006 29.5482C20.8518 29.8405 20.7788 30.1328 20.6813 30.4252C20.5839 30.7175 20.4134 30.9854 20.1698 31.229C20.2672 31.7162 20.3403 32.2034 20.389 32.6906C20.4377 33.1778 20.4621 33.665 20.4621 34.1522C20.4621 36.1984 20.121 38.1959 19.439 40.1447C19.6826 40.5344 19.8044 40.9729 19.8044 41.4601C19.8044 41.996 19.7313 42.4832 19.5851 42.9216C19.439 43.3601 19.3659 43.8473 19.3659 44.3832C19.3659 44.9191 19.4633 45.3576 19.6582 45.6986C19.9505 45.6986 20.121 45.7961 20.1698 45.991H20.6082C21.4852 45.991 22.2403 45.7717 22.8737 45.3332C23.507 44.8948 24.1891 44.6755 24.9199 44.6755C25.066 44.6755 25.2366 44.7243 25.4314 44.8217C25.6263 44.9191 25.7968 44.9679 25.943 44.9679C26.284 44.9679 26.4302 44.8461 26.3815 44.6025C26.3327 44.3589 26.4545 44.1883 26.7469 44.0909L29.3777 43.6524C31.0342 43.3601 32.5932 43.0191 34.0547 42.6293C35.565 42.1909 37.051 41.5575 38.5126 40.7293C38.8536 40.8754 39.2433 40.9485 39.6818 40.9485C40.0716 40.9485 40.4857 40.8998 40.9242 40.8024C41.3626 40.6562 41.7767 40.5831 42.1665 40.5831C42.5075 40.5831 42.7755 40.6318 42.9704 40.7293C43.2627 40.5344 43.6281 40.3882 44.0666 40.2908C44.505 40.1447 44.7486 39.8523 44.7973 39.4139H44.9435C45.1384 39.4139 45.2845 39.4626 45.382 39.56C45.4794 39.6575 45.6256 39.7062 45.8204 39.7062H46.1128C47.1359 39.219 48.0615 38.8536 48.8898 38.61C50.2539 38.269 51.7155 37.9766 53.2745 37.733C54.8335 37.4407 56.222 36.9535 57.44 36.2715C58.8528 36.2715 60.217 36.0522 61.5324 35.6138C62.8965 35.1266 64.2607 34.883 65.6248 34.883C66.2582 34.883 66.8428 34.9804 67.3787 35.1753C67.8659 34.8343 68.4262 34.5907 69.0595 34.4445C69.7416 34.2983 70.3019 34.0304 70.7403 33.6406C71.0326 33.6894 71.325 33.7381 71.6173 33.7868C71.9583 33.7868 72.2993 33.7868 72.6404 33.7868C74.102 33.7868 75.4905 33.5919 76.8059 33.2022C78.17 32.7637 79.5585 32.447 80.9714 32.2521C81.3124 32.6419 81.5316 33.056 81.6291 33.4945C81.7752 33.8842 81.8483 34.2983 81.8483 34.7368Z" fill="white"/>
<path d="M122.878 72.2993C122.732 72.9814 122.415 73.5417 121.928 73.9802C121.489 74.3699 120.953 74.6866 120.32 74.9302C119.687 75.1738 119.029 75.3443 118.347 75.4417C117.713 75.4905 117.129 75.5148 116.593 75.5148C116.349 75.5148 116.106 75.5148 115.862 75.5148C115.667 75.4661 115.448 75.4417 115.204 75.4417C114.961 75.4417 114.839 75.5635 114.839 75.8071C114.839 76.0507 114.717 76.2212 114.474 76.3187C114.23 76.2212 113.986 76.1482 113.743 76.0995C113.499 76.0507 113.256 76.0264 113.012 76.0264C112.671 76.0264 112.33 76.0507 111.989 76.0995C111.697 76.1482 111.404 76.1725 111.112 76.1725C110.722 76.1725 110.43 76.1238 110.235 76.0264C110.089 75.9289 109.943 75.8315 109.797 75.7341C109.699 75.5879 109.577 75.4417 109.431 75.2956C109.334 75.1494 109.163 75.0276 108.92 74.9302C108.579 74.784 108.286 74.7597 108.043 74.8571C107.848 74.9545 107.531 74.8084 107.093 74.4186C106.508 73.9314 105.996 73.3468 105.558 72.6647C105.168 71.934 104.779 71.1788 104.389 70.3993C103.999 69.6198 103.585 68.8403 103.146 68.0608C102.708 67.2813 102.196 66.5992 101.612 66.0146H101.027C100.15 66.0146 99.5412 66.38 99.2002 67.1107C98.9566 66.9646 98.713 66.7941 98.4694 66.5992C98.2258 66.3556 97.9578 66.1607 97.6655 66.0146C96.545 66.3556 95.3757 66.6479 94.1577 66.8915C92.9397 67.1351 91.7218 67.2569 90.5038 67.2569H89.4807C89.1884 67.2569 88.8717 67.2082 88.5306 67.1107C88.0435 67.3056 87.605 67.5492 87.2152 67.8415C86.8255 68.0851 86.387 68.2069 85.8998 68.2069C85.6075 68.2069 85.2665 68.1095 84.8767 67.9146C84.5844 67.9146 84.4382 68.0364 84.4382 68.28C84.4869 68.5236 84.3408 68.6454 83.9998 68.6454H83.342C82.66 68.6454 81.9779 68.6698 81.2958 68.7185C80.6625 68.7672 80.0048 68.7916 79.3227 68.7916C78.397 68.7916 77.447 68.6698 76.4726 68.4262C76.229 68.5723 75.9611 68.6454 75.6688 68.6454C75.4739 68.7428 75.3277 68.9134 75.2303 69.157C75.1329 69.3518 75.0354 69.5467 74.938 69.7416C74.8405 69.8877 74.6944 70.0339 74.4995 70.1801C74.3534 70.2775 74.1341 70.3019 73.8418 70.2531C73.7444 70.8378 73.5008 71.3006 73.111 71.6416C72.7213 71.9827 72.5264 72.4942 72.5264 73.1763C71.9905 73.4686 71.552 73.834 71.211 74.2725C70.8699 74.7109 70.5289 75.1738 70.1879 75.661C69.8468 76.1482 69.4814 76.611 69.0917 77.0495C68.7506 77.4879 68.3122 77.829 67.7763 78.0726C67.5327 78.3649 67.4596 78.8277 67.557 79.4611C67.0211 79.8996 66.3634 80.2893 65.5839 80.6303C64.8044 80.9714 64.0736 81.1419 63.3915 81.1419C61.9787 81.1419 61.0043 80.3867 60.4684 78.8764C60.4684 78.3893 60.5171 77.8777 60.6145 77.3418C60.6632 76.7572 60.7607 76.2212 60.9068 75.7341C61.053 75.1981 61.2722 74.7353 61.5646 74.3456C61.8569 73.9071 62.271 73.5904 62.8069 73.3955C62.8069 72.9571 62.6607 72.6647 62.3684 72.5186C62.0761 72.3237 61.9543 72.007 62.003 71.5686C63.3184 70.9352 64.4633 70.107 65.4377 69.0839C66.4121 68.0608 67.2891 66.9889 68.0686 65.8684C68.8968 64.6991 69.725 63.5299 70.5533 62.3606C71.3815 61.1914 72.3071 60.1439 73.3302 59.2182V57.6836C74.7918 56.1246 75.7418 54.3707 76.1803 52.4219C76.7162 52.3245 77.0573 52.0809 77.2034 51.6911C77.3983 51.3014 77.4957 50.8385 77.4957 50.3026C77.7393 50.3026 77.8855 50.2052 77.9342 50.0103C78.0316 49.7667 78.2509 49.6936 78.5919 49.7911C79.0304 48.6218 79.5176 47.55 80.0535 46.5756C80.5894 45.6012 81.1253 44.6268 81.6612 43.6524C82.1971 42.6293 82.66 41.5819 83.0497 40.51C83.4882 39.4382 83.8049 38.2446 83.9998 36.9292C84.6818 36.8805 85.0472 36.5638 85.0959 35.9792C85.1934 35.3458 85.2908 34.7855 85.3883 34.2983C86.119 33.6163 86.655 32.8124 86.996 31.8867C87.3857 30.9611 87.7268 30.0111 88.0191 29.0367C88.3114 28.0136 88.6281 27.0148 88.9691 26.0404C89.3589 25.0173 88.7986 22.5083 89.4807 21.7288V21.5095C89.4807 21.2659 89.3832 21.1198 89.1884 21.0711C88.9935 20.9736 88.896 20.8031 88.896 20.5595C88.9448 20.5108 88.9691 20.4621 88.9691 20.4134C89.5537 20.1698 89.9922 19.78 90.2845 19.2441C90.5769 18.6595 91.0153 18.2454 91.6 18.0018C92.6231 18.83 94.6205 20.9493 95.4001 21.1441C96.1796 21.2903 97.2027 21.4121 98.4694 21.5095C99.1027 22.1916 99.4438 23.0198 99.4925 23.9942C99.5899 24.9199 99.7604 25.8456 100.004 26.7712C100.394 28.3302 100.808 29.8649 101.246 31.3752C101.734 32.8368 102.099 34.3471 102.343 35.9061C102.489 36.8317 102.757 37.7087 103.146 38.5369C103.536 39.3651 103.804 40.2177 103.95 41.0947C104.048 41.7767 104.048 42.5563 103.95 43.4332C103.853 44.2614 103.95 44.9922 104.243 45.6256L104.754 46.7948C104.998 47.3307 105.193 47.891 105.339 48.4756C105.534 49.0603 105.704 49.6449 105.85 50.2295C106.24 51.6911 106.581 53.2745 106.873 54.9797C107.214 56.6361 107.726 58.1464 108.408 59.5105C108.652 59.9977 109.017 60.3388 109.504 60.5337C110.04 60.7285 110.625 60.8747 111.258 60.9721C111.892 61.0208 112.501 61.0452 113.085 61.0452C113.718 60.9965 114.254 60.9721 114.693 60.9721H115.424C115.716 60.9721 116.008 61.0208 116.301 61.1183C116.495 61.508 116.593 61.8491 116.593 62.1414C116.593 62.726 116.398 63.1888 116.008 63.5299C115.619 63.8709 115.424 64.2607 115.424 64.6991C115.424 64.9427 115.521 65.2107 115.716 65.503C115.521 65.4543 115.229 65.4299 114.839 65.4299C113.718 65.4299 112.622 65.6248 111.55 66.0146C111.94 66.8428 112.452 67.5492 113.085 68.1339C113.767 68.6698 114.474 69.1813 115.204 69.6685C115.692 69.2788 116.203 69.0839 116.739 69.0839C117.324 69.0839 117.86 69.23 118.347 69.5224C118.883 69.7659 119.443 69.8877 120.028 69.8877C120.466 69.8877 120.783 69.8147 120.978 69.6685C121.367 70.107 121.684 70.5698 121.928 71.057C122.171 71.4955 122.488 71.9096 122.878 72.2993ZM100.004 60.6067C99.9066 59.7785 99.7361 59.1939 99.4925 58.8528C99.2976 58.4631 99.1271 58.0003 98.9809 57.4643C98.786 56.7823 98.6399 56.0515 98.5424 55.272C98.4937 54.4925 98.3963 53.7373 98.2501 53.0065C97.9091 51.3501 97.5193 49.6936 97.0809 48.0372C96.6911 46.3807 96.1796 44.773 95.5462 43.214C95.7411 42.9216 95.8385 42.6537 95.8385 42.4101V42.1909C95.4001 41.7037 95.0834 41.119 94.8885 40.437C94.6936 39.7062 94.4988 38.9997 94.3039 38.3177C94.1577 37.5869 93.9385 36.9292 93.6462 36.3446C93.4026 35.7112 92.9885 35.1996 92.4038 34.8099C92.2577 35.1022 92.1846 35.4432 92.1846 35.833C92.1846 36.174 92.2089 36.4907 92.2577 36.783C92.3551 37.0753 92.4038 37.392 92.4038 37.733C91.9166 37.9766 91.5512 38.3664 91.3076 38.9023C91.1128 39.3895 90.7717 39.7793 90.2845 40.0716C89.8948 41.6306 89.3345 43.1165 88.6037 44.5294C87.8729 45.8935 87.0934 47.2577 86.2652 48.6218C85.4857 49.9859 84.7305 51.3744 83.9998 52.7873C83.269 54.1514 82.6843 55.5886 82.2459 57.0989C81.6125 57.5374 81.174 58.0977 80.9304 58.7798C80.7356 59.4618 80.6381 60.1439 80.6381 60.826C81.0766 61.0696 81.5638 61.2157 82.0997 61.2644C82.6843 61.2644 83.2446 61.2644 83.7805 61.2644C84.3164 61.2644 84.828 61.3132 85.3152 61.4106C85.8024 61.508 86.2408 61.7516 86.6306 62.1414C87.2639 61.9465 87.946 61.8247 88.6768 61.776C89.4563 61.6786 90.0897 61.4593 90.5769 61.1183C91.5512 61.4593 92.5987 61.6298 93.7192 61.6298C94.3039 61.6298 94.8641 61.5811 95.4001 61.4837C95.9847 61.3862 96.545 61.2644 97.0809 61.1183C97.5193 61.2157 97.8604 61.3862 98.104 61.6298C98.3476 61.8247 98.713 61.8978 99.2002 61.8491C99.4438 61.6542 99.5899 61.4593 99.6386 61.2644C99.6874 61.0208 99.8091 60.8016 100.004 60.6067Z" fill="white"/>
<path d="M169.607 29.6213C169.51 30.2059 169.364 30.7175 169.169 31.156C169.023 31.5457 168.998 32.0816 169.096 32.7637C168.609 32.8124 168.219 32.9829 167.926 33.2752C167.683 33.5188 167.464 33.8112 167.269 34.1522C167.123 34.4932 166.952 34.8586 166.757 35.2484C166.611 35.5894 166.416 35.9061 166.173 36.1984C166.562 37.9523 166.782 39.7305 166.83 41.5331C166.879 43.3358 167.001 45.114 167.196 46.8679C167.439 49.109 167.805 51.3257 168.292 53.5181C168.828 55.6617 169.096 57.8541 169.096 60.0952C169.096 60.7772 169.071 61.4106 169.023 61.9952C169.023 62.5799 169.023 63.1888 169.023 63.8222C169.023 64.212 169.023 64.6261 169.023 65.0645C169.071 65.4543 169.096 65.844 169.096 66.2338C169.096 67.6467 168.901 69.0595 168.511 70.4724C168.17 71.8852 167.902 73.2981 167.707 74.7109C167.123 75.2469 166.611 75.8315 166.173 76.4648C165.783 77.0982 165.369 77.6828 164.93 78.2187C164.492 78.7546 163.98 79.2175 163.396 79.6072C162.811 80.0457 162.08 80.338 161.203 80.4842C161.057 80.9714 160.765 81.3368 160.326 81.5804C159.936 81.824 159.595 82.165 159.303 82.6035H159.157C157.939 82.6035 156.892 82.433 156.015 82.0919C155.138 81.7509 154.309 81.3611 153.53 80.9227C152.799 80.4842 152.044 80.0214 151.264 79.5342C150.485 79.047 149.584 78.6572 148.561 78.3649C147.196 77.2444 145.954 76.0264 144.834 74.7109C143.713 73.3468 142.446 72.1288 141.033 71.057C140.692 70.0826 140.23 69.2788 139.645 68.6454C139.109 68.0121 138.573 67.2813 138.037 66.453C137.794 66.112 137.599 65.7953 137.453 65.503C137.355 65.2107 137.209 64.8697 137.014 64.4799C136.868 64.0902 136.624 63.8222 136.283 63.676C135.991 63.5299 135.723 63.3594 135.479 63.1645C135.09 61.6542 134.529 60.2657 133.799 58.999C133.068 57.7323 132.215 56.5143 131.241 55.3451C130.949 55.881 130.705 56.4656 130.51 57.0989C130.364 57.6836 130.218 58.2926 130.072 58.9259C129.925 59.5105 129.731 60.1195 129.487 60.7529C129.292 61.3375 129.024 61.8734 128.683 62.3606V62.5799C128.683 62.8235 128.781 62.9696 128.975 63.0183C129.17 63.0671 129.268 63.2132 129.268 63.4568C129.268 63.5055 129.243 63.5542 129.195 63.603C129.195 63.6517 129.195 63.7004 129.195 63.7491C128.951 63.944 128.756 64.1876 128.61 64.4799C128.513 64.7722 128.269 64.9427 127.879 64.9915C127.928 65.2351 127.952 65.4787 127.952 65.7222V66.38C127.952 67.7928 127.782 69.2057 127.441 70.6185C127.148 72.0314 127.002 73.4686 127.002 74.9302V75.8802C127.002 76.2212 127.027 76.5379 127.075 76.8302C127.173 77.1226 127.319 77.4149 127.514 77.7072C127.709 77.9995 129.852 79.694 129.852 79.9376C129.852 80.2787 129.706 80.5953 129.414 80.8877C129.755 81.1312 130.145 81.3992 130.583 81.6915C131.022 81.9838 131.411 82.3005 131.752 82.6415C132.142 83.0313 132.459 83.4211 132.702 83.8108C132.946 84.2493 133.068 84.7121 133.068 85.1993C133.068 86.0275 132.8 86.6122 132.264 86.9532C131.728 87.2942 131.07 87.5622 130.291 87.7571C129.56 87.9519 128.781 88.1225 127.952 88.2686C127.173 88.4635 124.469 87.3536 123.933 87.7921H123.714C123.129 87.7921 122.691 87.6216 122.398 87.2805C122.106 86.9395 121.668 86.769 121.083 86.769C120.157 85.2587 119.524 83.5535 119.183 81.6534C118.842 79.8021 118.671 78.0239 118.671 76.3187C118.671 74.2238 118.866 72.1288 119.256 70.0339C119.597 67.939 120.035 65.8684 120.571 63.8222C121.059 61.776 121.594 59.7541 122.179 57.7567C122.812 55.7104 123.397 53.6642 123.933 51.618L124.006 51.3988C124.006 51.1552 123.933 50.9847 123.787 50.8872C123.689 50.7898 123.641 50.6436 123.641 50.4488C123.641 50.3513 123.665 50.3026 123.714 50.3026C123.86 49.8154 124.006 49.3526 124.152 48.9141C124.347 48.4756 124.493 47.9884 124.591 47.4525C124.883 46.0884 125.078 44.6999 125.175 43.287C125.321 41.8255 125.395 40.3882 125.395 38.9754C125.443 37.5625 125.492 36.1497 125.541 34.7368C125.638 33.2752 125.809 31.838 126.052 30.4252C126.442 30.0354 126.807 29.6213 127.148 29.1828C127.489 28.7444 127.928 28.3546 128.464 28.0136C129.438 28.0623 130.413 28.2084 131.387 28.452C132.361 28.6956 133.287 29.0854 134.164 29.6213C134.749 31.7162 135.138 33.8112 135.333 35.9061C135.577 38.001 135.967 40.0959 136.503 42.1909V42.4101C136.503 42.6537 136.624 42.7755 136.868 42.7755C137.16 42.7268 137.379 42.7998 137.526 42.9947C137.428 43.1409 137.355 43.3114 137.306 43.5063C137.306 43.7012 137.306 43.896 137.306 44.0909V45.3332C137.404 45.723 137.526 46.1371 137.672 46.5756C137.818 47.0141 138.135 47.282 138.622 47.3795C138.865 48.9385 139.231 50.3757 139.718 51.6911C140.205 53.0065 140.765 54.2732 141.399 55.4912C142.032 56.7092 142.714 57.9272 143.445 59.1452C144.176 60.3144 144.931 61.5568 145.71 62.8722C146.928 63.7978 147.976 64.8697 148.853 66.0876C149.73 67.2569 150.607 68.4018 151.484 69.5224C152.409 70.5942 153.432 71.5442 154.553 72.3724C155.722 73.2007 157.233 73.7122 159.084 73.9071C159.327 73.7122 159.498 73.4442 159.595 73.1032L159.961 72.0801C160.107 71.7391 160.253 71.4468 160.399 71.2032C160.594 70.9108 160.862 70.6916 161.203 70.5455C161.301 69.1813 161.398 67.7928 161.495 66.38C161.642 64.9671 161.958 63.6273 162.446 62.3606C162.202 61.9221 162.08 61.3862 162.08 60.7529C162.08 60.2657 162.104 59.8029 162.153 59.3644C162.251 58.9259 162.299 58.4874 162.299 58.049C162.299 57.1233 162.104 56.3682 161.715 55.7835C161.715 55.4425 161.739 55.1015 161.788 54.7604C161.837 54.3707 161.983 54.0053 162.226 53.6642C161.837 52.6899 161.52 51.6667 161.276 50.5949C161.081 49.5231 160.984 48.4269 160.984 47.3064C160.984 46.673 161.057 46.0153 161.203 45.3332C160.911 44.6025 160.716 43.7499 160.619 42.7755L160.326 39.7793C160.229 38.7562 160.083 37.8061 159.888 36.9292C159.693 36.0522 159.327 35.3458 158.792 34.8099C159.084 34.3714 159.23 33.8599 159.23 33.2752C159.23 32.3009 159.084 31.3752 158.792 30.4982C158.499 29.6213 158.353 28.6956 158.353 27.7212C158.353 27.0392 158.499 26.3571 158.792 25.675C159.863 25.7238 160.911 25.8456 161.934 26.0404C163.006 26.1866 164.053 26.2597 165.076 26.2597C165.369 26.6494 165.71 26.9661 166.099 27.2097C166.489 27.4533 166.903 27.6969 167.342 27.9405C167.78 28.1354 168.194 28.3546 168.584 28.5982C169.023 28.8418 169.364 29.1828 169.607 29.6213Z" fill="white"/>
<path d="M225.252 41.6062C225.252 42.0934 225.082 42.4101 224.741 42.5563C224.4 42.7024 224.229 42.9947 224.229 43.4332C224.229 43.5794 224.278 43.7012 224.375 43.7986C224.473 43.896 224.522 44.0422 224.522 44.2371V44.5294C223.937 47.3551 223.084 49.8154 221.964 51.9103C220.892 54.0053 219.625 55.9297 218.164 57.6836C216.702 59.4375 215.046 61.0939 213.194 62.6529C211.392 64.212 209.443 65.844 207.348 67.5492C206.763 68.0364 206.154 68.5236 205.521 69.0108C204.937 69.498 204.376 70.0095 203.84 70.5455L202.233 72.0801C202.184 72.1288 201.916 72.2506 201.429 72.4455C200.942 72.5917 200.649 72.6891 200.552 72.7378C199.87 73.0301 199.139 73.3712 198.359 73.7609C197.629 74.1507 196.995 74.6379 196.459 75.2225C195.485 75.2225 194.657 75.3687 193.975 75.661C193.293 75.9533 192.537 76.343 191.709 76.8302C191.466 76.8302 191.246 76.7815 191.052 76.6841C190.905 76.5866 190.735 76.4892 190.54 76.3918C190.345 76.2943 190.126 76.2456 189.882 76.2456C189.687 76.1969 189.419 76.2212 189.078 76.3187C188.494 75.3443 187.86 74.5161 187.178 73.834C186.496 73.1519 185.571 72.7378 184.401 72.5917C184.255 71.7634 183.914 71.1301 183.378 70.6916C182.842 70.2044 182.306 69.6929 181.771 69.157C181.673 68.8646 181.6 68.5236 181.551 68.1339C181.503 67.7441 181.405 67.3787 181.259 67.0377C181.113 66.6966 180.918 66.4043 180.674 66.1607C180.431 65.9171 180.09 65.7953 179.651 65.7953C179.602 65.503 179.724 65.3569 180.017 65.3569C180.309 65.3569 180.455 65.2351 180.455 64.9915C180.455 64.6991 180.406 64.4068 180.309 64.1145C180.211 63.8222 180.163 63.5055 180.163 63.1645C180.163 62.9209 180.187 62.7017 180.236 62.5068C180.285 62.3119 180.358 62.0927 180.455 61.8491C180.309 60.5337 180.236 59.1939 180.236 57.8297C180.236 55.1989 180.406 52.6168 180.747 50.0834C181.137 47.5013 181.332 44.8948 181.332 42.2639C181.332 41.0947 181.259 39.9254 181.113 38.7562C181.015 37.5869 180.796 36.442 180.455 35.3214C179.335 35.565 178.214 35.8574 177.093 36.1984C175.973 36.4907 174.925 36.9048 173.951 37.4407C173.415 37.0997 172.855 36.9048 172.27 36.8561C171.637 36.7587 171.028 36.6125 170.443 36.4176C170.102 35.7356 169.932 35.0291 169.932 34.2983C169.932 33.6163 170.054 32.9586 170.297 32.3252L171.028 30.4252C172.197 30.1816 173.366 29.8162 174.536 29.329C175.656 28.8418 176.801 28.4033 177.97 28.0136C178.36 27.9161 178.847 27.7943 179.432 27.6482C180.065 27.502 180.504 27.3802 180.747 27.2828C181.088 27.1366 181.308 26.8687 181.405 26.4789C181.551 26.0404 181.746 25.675 181.99 25.3827H183.232C183.524 25.3827 183.841 25.4071 184.182 25.4558C184.523 25.4558 184.84 25.5289 185.132 25.675C186.886 25.2366 188.64 24.9686 190.394 24.8712C192.148 24.725 193.95 24.5301 195.802 24.2865C195.997 24.2865 196.289 24.2622 196.679 24.2135L197.921 23.9942C198.359 23.8968 198.749 23.8237 199.09 23.775C199.48 23.6776 199.748 23.6288 199.894 23.6288C200.04 23.6288 200.113 23.7019 200.113 23.8481H201.356C203.451 23.8481 205.497 24.116 207.494 24.6519L213.487 26.2597C214.315 26.9417 215.143 27.5994 215.971 28.2328C216.8 28.8661 217.725 29.4264 218.748 29.9136C218.992 30.6931 219.357 31.3265 219.845 31.8137C220.381 32.2521 220.965 32.7393 221.598 33.2752C221.842 33.9086 222.159 34.5907 222.549 35.3214C222.987 36.0035 223.401 36.7099 223.791 37.4407C224.181 38.1715 224.522 38.9023 224.814 39.6331C225.106 40.3152 225.252 40.9729 225.252 41.6062ZM218.456 42.7024C217.92 41.5819 217.409 40.4126 216.921 39.1946C216.434 37.9766 215.825 36.8805 215.094 35.9061C214.218 35.6625 213.316 35.3702 212.391 35.0291C211.514 34.6394 210.905 33.9817 210.564 33.056C210.466 33.1047 210.296 33.1291 210.052 33.1291C209.614 33.1291 209.224 32.9586 208.883 32.6175C208.542 32.2765 208.152 32.0573 207.713 31.9598C207.324 31.9111 206.788 31.838 206.106 31.7406C205.472 31.6431 204.79 31.5701 204.06 31.5213C203.329 31.4726 202.598 31.4239 201.867 31.3752C201.185 31.3265 200.649 31.3021 200.259 31.3021C199.87 31.3021 199.456 31.3265 199.017 31.3752C198.627 31.3752 198.213 31.3995 197.775 31.4483C197.385 31.4483 197.141 31.5213 197.044 31.6675C196.947 31.7649 196.752 31.8624 196.459 31.9598C196.216 31.8624 195.948 31.8137 195.655 31.8137H194.779C193.755 31.8137 192.732 31.9842 191.709 32.3252C190.735 32.6175 189.76 33.0316 188.786 33.5676V33.8599C188.786 34.2496 188.957 34.4689 189.298 34.5176C189.639 34.5663 189.834 34.7612 189.882 35.1022C189.639 35.1022 189.444 35.1266 189.298 35.1753C189.151 35.1753 189.078 35.3458 189.078 35.6868C189.078 36.174 189.127 36.7099 189.225 37.2946C189.371 37.8792 189.444 38.4638 189.444 39.0485C189.444 39.4869 189.395 39.9985 189.298 40.5831C189.2 41.1678 188.957 41.6306 188.567 41.9716C189.054 42.4101 189.298 42.9947 189.298 43.7255C189.298 44.2127 189.2 44.7243 189.005 45.2602C188.81 45.7961 188.567 46.2589 188.275 46.6487C188.177 48.6949 187.982 50.7654 187.69 52.8604C187.398 54.9553 187.251 57.0259 187.251 59.0721C187.251 60.0952 187.3 61.0939 187.398 62.0683C187.544 63.0427 187.763 64.0171 188.055 64.9915C188.591 65.5274 189.151 65.9415 189.736 66.2338C190.369 66.5261 191.027 66.8184 191.709 67.1107V67.33C191.709 67.4761 191.612 67.6223 191.417 67.7685C191.222 67.9146 191.125 68.1095 191.125 68.3531C191.125 68.548 191.222 68.6454 191.417 68.6454C193.463 68.0608 195.388 67.3543 197.19 66.5261C198.993 65.6979 200.674 64.5773 202.233 63.1645C202.379 63.0183 202.525 62.9453 202.671 62.9453C202.768 62.9453 202.89 62.9696 203.036 63.0183C203.231 63.0671 203.402 63.1158 203.548 63.1645L203.475 62.8722C203.475 62.5799 203.548 62.3119 203.694 62.0683C203.889 61.8247 204.108 61.6055 204.352 61.4106L205.083 60.7529C205.326 60.5093 205.521 60.2657 205.667 60.0221C206.057 59.9247 206.325 59.7298 206.471 59.4375C206.666 59.1452 206.983 58.999 207.421 58.999C207.519 58.4631 207.787 58.0733 208.225 57.8297C208.664 57.5374 208.931 57.1233 209.029 56.5874C210.003 56.0515 210.856 55.3938 211.587 54.6143C212.366 53.8348 213.073 53.0065 213.706 52.1296C214.388 51.2526 215.021 50.3513 215.606 49.4257C216.191 48.4513 216.8 47.5256 217.433 46.6487V46.3564C217.433 45.5768 217.555 44.9435 217.798 44.4563C218.091 43.9691 218.31 43.3845 218.456 42.7024Z" fill="white"/>
<path d="M273.955 35.3214C273.663 35.7599 273.492 36.2471 273.444 36.783C273.395 37.3189 273.37 37.8061 273.37 38.2446C273.37 38.8292 273.37 39.4139 273.37 39.9985C273.419 40.5344 273.444 41.0703 273.444 41.6062V42.7024C273.346 43.0434 273.2 43.3845 273.005 43.7255C272.81 44.0665 272.664 44.4076 272.567 44.7486C271.885 46.5512 271.543 48.3538 271.543 50.1565V50.3026C271.3 50.8872 271.056 51.4232 270.813 51.9103C270.618 52.3975 270.423 52.8847 270.228 53.3719C270.033 53.8104 269.887 54.2976 269.79 54.8335C269.692 55.3207 269.668 55.9053 269.717 56.5874C269.034 58.2926 268.133 59.8516 267.013 61.2644C265.892 62.6286 264.796 64.0414 263.724 65.503C262.701 65.8928 261.751 66.4043 260.874 67.0377C260.046 67.671 259.242 68.3774 258.462 69.157C256.952 69.6441 255.466 70.2044 254.005 70.8378C252.543 71.4711 251.228 72.3237 250.058 73.3955C249.133 73.493 248.207 73.6391 247.281 73.834C246.356 74.0289 245.454 74.3212 244.577 74.7109H243.7C243.262 74.7109 242.945 74.6135 242.75 74.4186C242.117 74.7597 241.459 75.0033 240.777 75.1494C240.095 75.2469 239.413 75.2956 238.731 75.2956C237.854 75.2956 236.977 75.2469 236.1 75.1494C235.272 75.0033 234.419 74.8571 233.542 74.7109C233.055 74.0289 232.373 73.5173 231.496 73.1763C230.619 72.7865 229.84 72.4211 229.158 72.0801C227.745 70.1313 226.722 68.2556 226.088 66.453C225.455 64.6017 224.797 62.5311 224.115 60.2413C224.213 59.5593 224.383 58.9016 224.627 58.2682C224.87 57.5861 224.968 56.8553 224.919 56.0758C225.796 53.5424 226.941 51.2526 228.354 49.2064C229.815 47.1115 231.472 45.114 233.323 43.214C233.323 42.9216 233.372 42.6781 233.469 42.4832C233.616 42.2883 233.64 41.996 233.542 41.6062C233.591 41.6549 233.689 41.6793 233.835 41.6793C234.225 41.6793 234.468 41.5819 234.566 41.387C234.663 41.1434 234.687 40.8754 234.639 40.5831C236.393 39.4626 237.976 38.1715 239.389 36.7099C240.85 35.2484 242.507 34.0304 244.358 33.056C244.504 32.6175 244.748 32.2521 245.089 31.9598C245.43 31.6675 245.698 31.3265 245.893 30.9367C247.452 30.4982 248.865 29.8405 250.131 28.9636C251.398 28.0866 252.738 27.3071 254.151 26.6251C254.93 26.1866 255.661 25.8943 256.343 25.7481C257.074 25.5532 257.853 25.3584 258.682 25.1635C258.974 25.066 259.242 24.993 259.485 24.9443C259.729 24.8955 259.997 24.8712 260.289 24.8712C261.166 24.8712 262.019 25.0417 262.847 25.3827C263.675 25.675 264.528 25.8212 265.405 25.8212C265.648 25.8212 265.843 25.8212 265.989 25.8212C266.184 25.7725 266.379 25.7238 266.574 25.675C267.402 26.6981 268.45 27.4777 269.717 28.0136C270.009 28.7444 270.35 29.3777 270.74 29.9136C271.178 30.4495 271.617 30.9854 272.055 31.5213C272.494 32.0085 272.883 32.5688 273.224 33.2022C273.614 33.7868 273.858 34.4932 273.955 35.3214ZM266.647 39.1215C266.647 38.8779 266.623 38.6587 266.574 38.4638C266.087 38.3177 265.624 38.1228 265.186 37.8792C264.747 37.6356 264.26 37.5138 263.724 37.5138C263.383 37.5138 263.042 37.5869 262.701 37.733C262.652 37.392 262.506 37.1484 262.262 37.0023C262.068 36.8561 261.824 36.7343 261.532 36.6369C261.288 36.4907 261.02 36.3933 260.728 36.3446C260.484 36.2471 260.265 36.101 260.07 35.9061C259.924 35.5163 259.753 35.1266 259.559 34.7368C259.412 34.2983 259.12 33.9817 258.682 33.7868C258.243 34.2253 257.732 34.5907 257.147 34.883C256.562 35.1266 255.953 35.3702 255.32 35.6138C254.735 35.8574 254.151 36.1497 253.566 36.4907C253.03 36.8317 252.567 37.2459 252.178 37.733H250.862C250.57 38.269 250.156 38.6831 249.62 38.9754C249.084 39.219 248.621 39.5844 248.231 40.0716C247.452 40.4613 246.721 40.9485 246.039 41.5331C245.406 42.0691 244.772 42.6537 244.139 43.287C243.506 43.8717 242.872 44.4807 242.239 45.114C241.654 45.7474 241.021 46.332 240.339 46.8679C239.705 48.232 238.999 49.4257 238.22 50.4488C237.489 51.4232 236.782 52.4219 236.1 53.445C235.467 54.4681 234.907 55.5886 234.419 56.8066C233.981 57.9759 233.762 59.4375 233.762 61.1914V61.9221C233.762 62.1657 233.786 62.4093 233.835 62.6529C234.468 63.335 234.98 64.0658 235.369 64.8453C235.808 65.6248 236.514 66.1851 237.489 66.5261C238.463 66.9159 239.486 67.0864 240.558 67.0377C241.679 66.9889 242.75 67.1107 243.774 67.4031C246.112 66.9646 248.353 66.2582 250.497 65.2838C252.689 64.2607 254.76 63.0427 256.708 61.6298C257.001 61.3862 257.342 61.1426 257.732 60.899C258.121 60.6067 258.438 60.3144 258.682 60.0221C258.925 59.7785 259.12 59.5105 259.266 59.2182C259.461 58.9259 259.656 58.658 259.851 58.4144C260.241 57.781 260.679 57.1477 261.166 56.5143C261.653 55.881 262.165 55.2963 262.701 54.7604C262.945 53.6886 263.261 52.6655 263.651 51.6911C264.041 50.668 264.43 49.6693 264.82 48.6949C265.21 47.7205 265.527 46.7217 265.77 45.6986C266.063 44.6755 266.209 43.6037 266.209 42.4832C266.209 42.2396 266.184 41.9716 266.136 41.6793C266.136 41.387 266.111 41.119 266.063 40.8754C266.452 40.3395 266.647 39.7549 266.647 39.1215Z" fill="white"/>
<path d="M348.773 71.6416C348.53 72.4211 348.456 73.2007 348.554 73.9802C348.408 74.175 348.237 74.2968 348.042 74.3456C347.847 74.3943 347.653 74.4674 347.458 74.5648C347.263 74.6135 347.092 74.7109 346.946 74.8571C346.849 74.9545 346.849 75.1738 346.946 75.5148C345.338 75.6123 343.558 72.7378 342.097 73.3225C340.635 73.9071 339.198 74.5404 337.785 75.2225C337.054 74.9789 336.421 74.6866 335.885 74.3456C335.349 74.0045 334.667 73.7853 333.839 73.6878C333.011 72.0314 332.231 70.3019 331.5 68.4992C330.818 66.6479 330.477 64.7966 330.477 62.9453C330.477 61.5811 330.721 60.3388 331.208 59.2182C331.208 57.7567 331.33 56.3194 331.573 54.9066C331.817 53.4937 332.085 52.1052 332.377 50.7411C332.718 49.3282 333.011 47.9154 333.254 46.5025C333.498 45.0897 333.62 43.6524 333.62 42.1909V40.5831C333.522 40.5831 333.4 40.7049 333.254 40.9485C333.108 41.1434 332.962 41.387 332.816 41.6793C332.718 41.9229 332.621 42.1665 332.523 42.4101C332.426 42.6537 332.353 42.7998 332.304 42.8486C331.476 43.4819 330.818 44.2858 330.331 45.2602C329.893 46.1858 329.405 47.0628 328.869 47.891C328.187 48.9141 327.457 49.9129 326.677 50.8872C325.946 51.8616 325.021 52.6168 323.9 53.1527V53.2988C323.9 53.5424 323.827 53.713 323.681 53.8104C323.535 53.9078 323.51 54.1514 323.608 54.5412C322.39 54.9309 321.245 55.4912 320.173 56.222C319.15 56.9528 318.297 57.8785 317.615 58.999C316.641 59.2426 315.715 59.5836 314.838 60.0221C314.01 60.4119 313.158 60.8503 312.281 61.3375C311.891 61.5324 311.477 61.776 311.038 62.0683C310.6 62.3606 310.161 62.5555 309.723 62.6529C309.333 62.7991 308.797 62.8965 308.115 62.9453C307.482 62.994 306.8 63.0427 306.069 63.0914C305.387 63.1401 304.705 63.1645 304.023 63.1645H302.415C302.171 63.1645 301.855 63.0427 301.465 62.7991C301.075 62.5555 300.637 62.2875 300.149 61.9952C299.711 61.7029 299.248 61.435 298.761 61.1914C298.274 60.899 297.811 60.7042 297.372 60.6067C296.983 59.34 296.422 58.2195 295.692 57.2451C295.01 56.222 294.279 55.1989 293.499 54.1758C293.256 53.0065 292.915 51.7885 292.476 50.5218C292.086 49.2551 291.38 48.2077 290.357 47.3795C290.601 47.0384 290.722 46.6487 290.722 46.2102C290.722 45.6743 290.601 45.1627 290.357 44.6755C290.113 44.1883 289.992 43.6524 289.992 43.0678C289.992 42.6781 290.016 42.3857 290.065 42.1909C289.529 42.7755 289.139 43.5306 288.895 44.4563C288.7 45.3332 288.603 46.1371 288.603 46.8679C288.603 47.4525 288.676 47.9884 288.822 48.4756C288.335 49.1577 288.018 50.0103 287.872 51.0334C287.775 52.0565 287.726 52.9578 287.726 53.7373C287.726 54.7117 287.799 55.6617 287.945 56.5874C287.166 57.3669 286.776 58.3169 286.776 59.4375C286.776 60.0708 286.922 60.6311 287.215 61.1183C287.215 61.3132 287.166 61.4593 287.068 61.5568C286.971 61.6542 286.849 61.7273 286.703 61.776C286.606 61.8247 286.484 61.8978 286.338 61.9952C286.24 62.0439 286.191 62.1657 286.191 62.3606C286.191 62.6042 286.191 62.8722 286.191 63.1645C286.24 63.4568 286.264 63.7491 286.264 64.0414C286.264 64.7235 286.24 65.4299 286.191 66.1607C286.143 66.8915 286.118 67.5979 286.118 68.28C286.118 69.6929 286.24 70.716 286.484 71.3493C286.776 71.934 287.117 72.3724 287.507 72.6647C287.945 72.9571 288.408 73.2494 288.895 73.5417C289.383 73.834 289.87 74.3943 290.357 75.2225C290.211 75.661 289.943 76.0264 289.553 76.3187C289.212 76.5623 288.871 76.8302 288.53 77.1226C288.238 77.3662 287.97 77.6585 287.726 77.9995C287.482 78.3405 287.385 78.8277 287.434 79.4611H287.068C286.435 79.4611 285.826 79.5585 285.241 79.7534C284.657 79.9483 284.048 80.0457 283.414 80.0457C283.268 80.0457 283.122 80.0214 282.976 79.9726C282.83 79.9726 282.684 79.9726 282.537 79.9726L281.807 79.5342C281.563 79.388 281.319 79.3149 281.076 79.3149C280.832 79.3149 280.516 79.3636 280.126 79.4611C279.444 77.2687 278.908 75.0033 278.518 72.6647C278.177 70.3262 278.007 68.0364 278.007 65.7953C278.007 65.5517 278.055 65.3081 278.153 65.0645C278.299 64.7722 278.494 64.6748 278.737 64.7722V63.3837C278.737 61.8734 278.859 60.4119 279.103 58.999C279.395 57.5374 279.541 56.0271 279.541 54.4681C279.541 54.0296 279.517 53.5912 279.468 53.1527C279.468 52.7142 279.444 52.3001 279.395 51.9103C279.639 51.0821 279.882 50.2539 280.126 49.4257C280.418 48.5487 280.564 47.6474 280.564 46.7217C280.564 46.332 280.491 45.8692 280.345 45.3332C280.735 45.0409 281.027 44.6755 281.222 44.2371C281.417 43.7499 281.563 43.2383 281.661 42.7024C281.758 42.1178 281.831 41.5575 281.88 41.0216C281.928 40.4857 281.977 39.9985 282.026 39.56C282.513 38.5856 282.781 37.5382 282.83 36.4176C282.879 35.2971 283.122 34.2496 283.561 33.2752C283.512 33.0804 283.487 32.7393 283.487 32.2521C283.487 31.2778 283.634 30.3034 283.926 29.329C284.267 28.3059 284.925 27.5264 285.899 26.9905C286.776 27.3315 287.799 27.502 288.968 27.502C290.089 27.502 291.161 27.3315 292.184 26.9905C292.476 27.0879 292.744 27.2097 292.988 27.3559C293.231 27.4533 293.475 27.5751 293.719 27.7212C294.011 27.8187 294.303 27.9161 294.595 28.0136C294.888 28.0623 295.229 28.0623 295.619 28.0136C296.106 29.4264 296.52 30.8636 296.861 32.3252C297.251 33.7868 297.543 35.2727 297.738 36.783C297.835 37.4164 297.86 38.0984 297.811 38.8292C297.811 39.56 297.86 40.2421 297.957 40.8754C298.006 41.2652 298.128 41.6306 298.323 41.9716C298.517 42.2639 298.712 42.605 298.907 42.9947C299.102 43.3845 299.248 43.823 299.346 44.3101C299.492 44.7973 299.541 45.4063 299.492 46.1371C300.028 47.4038 300.612 48.6218 301.246 49.7911C301.928 50.9116 302.659 52.0321 303.438 53.1527C303.877 53.2988 304.266 53.4937 304.607 53.7373C304.948 53.9322 305.168 54.2732 305.265 54.7604C305.703 54.7604 306.093 54.8335 306.434 54.9797L307.677 55.3451C309.528 54.7604 311.233 53.9809 312.792 53.0065C314.4 52.0321 316.081 51.2039 317.835 50.5218C319.978 48.4269 321.83 46.1128 323.389 43.5794C324.948 40.9972 326.507 38.4395 328.066 35.9061V34.2983C328.358 34.1522 328.602 33.9817 328.796 33.7868C329.04 33.5432 329.332 33.3727 329.673 33.2752C329.722 32.6906 329.844 32.1303 330.039 31.5944C330.282 31.0098 330.526 30.4739 330.77 29.9867C331.062 29.4508 331.305 28.9392 331.5 28.452C331.695 27.9161 331.793 27.3559 331.793 26.7712C331.793 26.4302 331.768 26.1379 331.72 25.8943C332.45 25.1635 333.327 24.7981 334.35 24.7981C335.325 24.7981 336.299 25.0417 337.274 25.5289C338.297 25.9674 339.247 26.3815 340.124 26.7712C340.66 27.9405 341.049 29.1828 341.293 30.4982C341.585 31.7649 341.78 33.0804 341.878 34.4445C341.975 35.8086 342.024 37.1728 342.024 38.5369V43.7255C341.975 44.1153 341.829 44.4076 341.585 44.6025C341.39 44.7486 341.244 44.9922 341.147 45.3332V46.064C341.147 46.3076 341.122 46.5512 341.074 46.7948C341.074 47.8179 340.952 48.8898 340.708 50.0103C340.465 51.4232 340.148 52.8604 339.758 54.3219C339.417 55.7348 339.247 57.172 339.247 58.6336C339.247 59.1695 339.271 59.7054 339.32 60.2413C339.368 60.7772 339.466 61.3132 339.612 61.8491C339.368 62.2875 339.247 62.8478 339.247 63.5299C339.247 64.3094 339.368 65.0402 339.612 65.7222C339.904 66.3556 340.245 66.9889 340.635 67.6223C341.317 67.6223 341.999 67.5979 342.681 67.5492C343.363 67.5005 344.07 67.4761 344.801 67.4761C345.728 70.6916 346.362 70.7647 346.946 70.9108C347.531 71.0083 348.14 71.2519 348.773 71.6416Z" fill="white"/>
<path d="M401.323 55.9297C400.836 55.9784 400.397 56.1002 400.007 56.2951C399.666 56.49 399.301 56.6361 398.911 56.7336C398.96 56.7823 398.984 56.8553 398.984 56.9528C398.984 57.2451 398.911 57.4643 398.765 57.6105C398.619 57.7079 398.595 57.9515 398.692 58.3413C397.961 58.731 397.206 59.0234 396.426 59.2182C395.647 59.4131 394.843 59.5836 394.015 59.7298C393.235 59.8759 392.456 60.0465 391.676 60.2413C390.897 60.4362 390.166 60.7529 389.484 61.1914V60.3875C388.899 60.7285 388.339 60.899 387.803 60.899C387.316 60.899 386.853 60.826 386.415 60.6798C385.976 60.4849 385.489 60.3875 384.953 60.3875C384.71 60.3875 384.393 60.4849 384.003 60.6798C383.516 60.6311 383.126 60.5093 382.834 60.3144C382.59 60.0708 382.274 59.8272 381.884 59.5836C381.64 60.0708 381.275 60.3875 380.788 60.5337C380.349 60.6311 379.935 60.6798 379.545 60.6798C379.009 60.6798 378.498 60.6554 378.011 60.6067C377.572 60.558 377.134 60.4849 376.695 60.3875C375.916 60.6311 375.185 60.7772 374.503 60.826C373.821 60.826 373.09 60.826 372.31 60.826C371.628 60.826 370.971 60.8747 370.337 60.9721C369.753 61.0208 369.144 61.1914 368.51 61.4837C368.315 60.9965 367.901 60.7529 367.268 60.7529C366.976 60.7529 366.659 60.7772 366.318 60.826C366.026 60.826 365.733 60.826 365.441 60.826C364.954 60.826 364.588 60.6798 364.345 60.3875C364.15 60.4849 364.053 60.6554 364.053 60.899C364.101 61.1426 364.101 61.3375 364.053 61.4837C363.322 61.1914 362.542 61.0452 361.714 61.0452C361.032 61.0452 360.374 61.1183 359.741 61.2644C359.108 61.4106 358.474 61.4837 357.841 61.4837C357.5 61.4837 357.159 61.435 356.818 61.3375C356.477 61.2401 356.184 61.1914 355.941 61.1914C355.648 61.1914 355.429 61.2644 355.283 61.4106C355.137 61.508 354.991 61.6298 354.845 61.776C354.747 61.8734 354.601 61.9952 354.406 62.1414C354.26 62.2388 354.041 62.2875 353.748 62.2875C353.213 62.2875 352.847 62.1414 352.652 61.8491C352.457 61.508 352.165 61.2888 351.775 61.1914C351.775 60.7042 351.702 60.2657 351.556 59.8759C351.41 59.4862 351.239 59.0964 351.045 58.7067C350.85 58.2682 350.679 57.8541 350.533 57.4643C350.387 57.0746 350.314 56.6361 350.314 56.1489C350.314 56.0028 350.314 55.8566 350.314 55.7104C350.362 55.5156 350.387 55.3451 350.387 55.1989C351.069 54.2245 352.043 53.5424 353.31 53.1527C354.625 52.7142 355.819 52.495 356.891 52.495C357.427 52.495 357.816 52.5924 358.06 52.7873C358.352 52.9822 358.693 53.2501 359.083 53.5912C362.494 53.2014 365.904 52.9334 369.314 52.7873C372.773 52.6411 376.208 52.4706 379.618 52.2757C380.739 52.1783 381.859 52.1052 382.98 52.0565C384.101 51.9591 385.221 51.8616 386.342 51.7642C386.488 51.7642 386.585 51.7155 386.634 51.618C386.683 51.4719 386.707 51.3257 386.707 51.1796C386.756 51.0334 386.804 50.9116 386.853 50.8142C386.951 50.7167 387.097 50.668 387.292 50.668C387.828 50.668 388.193 50.8385 388.388 51.1796C388.583 51.4719 388.875 51.6667 389.265 51.7642C389.606 51.5693 389.996 51.4232 390.434 51.3257C390.921 51.2283 391.384 51.1552 391.823 51.1065C392.261 51.009 392.675 50.9116 393.065 50.8142C393.503 50.668 393.869 50.4488 394.161 50.1565C394.551 50.1077 394.77 50.2052 394.819 50.4488C394.867 50.6436 395.014 50.7898 395.257 50.8872C395.501 50.8385 395.769 50.7898 396.061 50.7411C396.353 50.6436 396.621 50.5949 396.865 50.5949H397.377C397.571 50.5949 397.742 50.6193 397.888 50.668C398.327 51.6424 398.887 52.5193 399.569 53.2988C400.3 54.0784 400.884 54.9553 401.323 55.9297Z" fill="white"/>
<path d="M509 94.0038C509 94.5397 508.878 95.0512 508.635 95.5384C507.66 96.0743 506.637 96.4397 505.565 96.6346C504.542 96.8782 503.519 97 502.496 97C502.009 97 501.473 96.9756 500.888 96.9269C500.352 96.9269 499.865 96.8782 499.427 96.7808C499.281 96.732 499.11 96.6346 498.915 96.4885C498.72 96.3423 498.525 96.2692 498.331 96.2692C497.843 96.2692 497.381 96.3423 496.942 96.4885C496.504 96.6833 496.041 96.7808 495.554 96.7808C495.31 96.7808 495.066 96.7077 494.823 96.5615C494.628 96.4154 494.409 96.3179 494.165 96.2692C493.824 96.1718 493.483 96.1474 493.142 96.1961C492.801 96.2449 492.436 96.2692 492.046 96.2692C491.51 96.2692 491.023 96.1961 490.584 96.05C490.194 95.9038 489.829 95.6359 489.488 95.2461C488.27 95.1 487.076 94.8564 485.907 94.5153C484.738 94.223 483.569 93.882 482.399 93.4922C481.23 93.1512 480.061 92.8101 478.892 92.4691C477.722 92.1768 476.529 91.9819 475.311 91.8845C475.018 91.5434 474.677 91.2755 474.288 91.0806C473.898 90.9345 473.606 90.6665 473.411 90.2767C473.167 90.2767 472.997 90.3011 472.899 90.3498C472.802 90.4473 472.631 90.496 472.388 90.496C471.559 89.8139 470.658 89.2293 469.684 88.7421C468.758 88.2549 467.784 87.7921 466.761 87.3536C465.786 86.9151 464.812 86.4523 463.837 85.9651C462.912 85.5266 462.035 84.942 461.207 84.2112H460.841C460.451 84.2599 460.11 84.1625 459.818 83.9189C459.574 83.724 459.258 83.6266 458.868 83.6266C458.624 83.6266 458.43 83.6509 458.283 83.6997C458.137 83.3099 457.918 82.9932 457.626 82.7496C457.333 82.506 457.017 82.2624 456.676 82.0188C456.383 81.824 456.091 81.6047 455.799 81.3611C455.506 81.1663 455.287 80.8983 455.141 80.5573C453.923 80.1188 452.729 79.5829 451.56 78.9495C450.44 78.3649 449.441 77.5854 448.564 76.611C447.589 76.5136 446.786 76.2212 446.152 75.7341C445.519 75.1981 444.934 74.5404 444.398 73.7609C443.229 73.3712 442.157 72.8596 441.183 72.2263C440.209 71.5929 439.234 70.9352 438.26 70.2531C437.334 69.5711 436.335 68.9621 435.264 68.4262C434.24 67.8415 433.071 67.4274 431.756 67.1838C431.707 66.8428 431.561 66.5992 431.317 66.453C431.074 66.2582 430.781 66.112 430.44 66.0146C430.148 65.8684 429.856 65.7466 429.563 65.6492C429.271 65.5517 429.052 65.3569 428.906 65.0645C428.759 65.0645 428.613 65.0645 428.467 65.0645C428.321 65.0158 428.175 64.9915 428.029 64.9915C427.883 64.9915 427.712 65.0158 427.517 65.0645C427.371 65.0645 427.225 65.0645 427.079 65.0645L427.152 64.8453C427.152 64.6504 427.079 64.5286 426.933 64.4799C426.835 64.4312 426.689 64.3825 426.494 64.3338C426.299 64.285 426.129 64.212 425.983 64.1145C425.836 64.0171 425.763 63.7978 425.763 63.4568H425.544C425.008 63.4568 424.521 63.3594 424.082 63.1645C423.644 62.9696 423.157 62.8235 422.621 62.726C422.523 63.2619 422.475 63.7735 422.475 64.2607V65.5761C422.475 67.7685 422.718 70.0826 423.206 72.5186C423.693 74.9058 424.448 77.0495 425.471 78.9495C426.494 79.3393 427.371 79.8508 428.102 80.4842C428.833 81.1175 429.539 81.8483 430.221 82.6765C430.27 83.992 429.783 85.0882 428.759 85.9651C427.785 86.8908 426.64 87.3536 425.325 87.3536C424.594 87.3536 423.912 87.1587 423.279 86.769C422.694 86.4279 422.207 85.9164 421.817 85.2343C421.525 85.2343 421.257 85.283 421.013 85.3805C420.77 85.5266 420.477 85.5997 420.136 85.5997C419.99 85.5997 419.844 85.5753 419.698 85.5266C419.211 84.6984 418.723 83.9676 418.236 83.3343C417.798 82.7009 417.505 81.8483 417.359 80.7765C416.823 80.5329 416.482 80.0944 416.336 79.4611C416.239 78.8277 415.971 78.3162 415.532 77.9264C415.337 75.7341 415.069 73.5417 414.728 71.3493C414.436 69.157 414.29 66.9646 414.29 64.7722C414.29 64.285 414.314 63.7978 414.363 63.3106C414.412 62.7747 414.46 62.2388 414.509 61.7029C414.412 61.4593 414.266 61.2401 414.071 61.0452C413.924 60.8016 413.803 60.558 413.705 60.3144C412.731 60.558 411.708 60.8016 410.636 61.0452C409.613 61.2401 408.565 61.3375 407.494 61.3375C406.811 61.3375 405.983 61.2401 405.009 61.0452C404.034 60.8016 403.279 60.4849 402.743 60.0952C402.354 59.8516 402.086 59.4131 401.94 58.7798C401.745 58.0977 401.647 57.5131 401.647 57.0259C401.647 56.1976 401.793 55.3694 402.086 54.5412C402.378 53.6642 402.768 52.9091 403.255 52.2757C405.642 51.3014 407.859 50.1077 409.905 48.6949C412 47.282 414.046 45.7474 416.044 44.0909C416.092 43.6037 416.166 43.1165 416.263 42.6293C416.409 42.1421 416.482 41.6306 416.482 41.0947C416.482 40.51 416.336 39.9498 416.044 39.4139C416.336 39.1215 416.482 38.7562 416.482 38.3177C416.482 37.8305 416.604 37.392 416.848 37.0023V36.5638C416.848 36.3689 416.823 36.174 416.775 35.9792C416.775 35.7843 416.701 35.5894 416.555 35.3945C416.896 33.4945 417.164 31.6188 417.359 29.7675C417.554 27.8674 417.652 25.9186 417.652 23.9211C417.652 23.775 417.725 23.3852 417.871 22.7519C418.066 22.0698 418.187 21.607 418.236 21.3634C418.431 20.2428 418.553 19.1467 418.602 18.0748C418.699 16.9543 418.821 15.8338 418.967 14.7132C419.016 14.3235 416.549 14.2991 416.696 13.6657C416.842 13.0324 416.915 12.5939 416.915 12.3503C416.915 12.0093 416.842 11.7901 416.696 11.6926C416.598 11.5465 416.501 11.3272 416.403 11.0349C416.696 9.91436 419.405 8.30663 419.405 7.18609C419.454 6.01683 419.552 4.87192 419.698 3.75138C420.526 3.41035 421.184 3.06931 421.671 2.72828C422.158 2.38724 422.864 2.21673 423.79 2.21673H423.936C424.034 2.80136 424.253 3.36163 424.594 3.89754C424.935 4.38473 425.276 4.89628 425.617 5.4322C426.007 5.91939 426.348 6.40658 426.64 6.89377C426.933 7.33225 427.079 7.77072 427.079 8.20919C427.079 9.03742 427.006 9.93872 426.859 10.9131C426.713 11.8875 426.591 12.7888 426.494 13.617C426.25 15.8094 426.031 17.9774 425.836 20.121C425.641 22.216 425.349 24.3596 424.959 26.552C425.106 27.2341 425.179 27.8674 425.179 28.452C425.179 29.329 425.106 30.2059 424.959 31.0829C424.813 31.9598 424.74 32.8611 424.74 33.7868C424.74 34.2253 424.765 34.6881 424.813 35.1753C424.911 35.6625 425.057 36.101 425.252 36.4907C426.908 36.0522 428.394 35.1509 429.71 33.7868C429.904 33.5919 430.099 33.3483 430.294 33.056C430.538 32.715 430.781 32.447 431.025 32.2521C431.512 31.8624 432.024 31.5213 432.56 31.229C433.144 30.888 433.705 30.547 434.24 30.2059C435.507 29.3777 436.725 28.5251 437.894 27.6482C439.112 26.7225 440.33 25.8212 441.548 24.9443C445.154 22.3134 448.637 19.5851 451.999 16.7594C455.409 13.885 458.722 10.8644 461.937 7.69764C462.083 6.86941 462.376 6.2117 462.814 5.72451C463.253 5.23732 463.642 4.65269 463.984 3.97062C464.909 3.62958 465.713 3.11803 466.395 2.43596C466.687 2.5334 466.98 2.60648 467.272 2.6552C467.613 2.6552 467.93 2.6552 468.222 2.6552C468.563 2.6552 468.88 2.67956 469.172 2.72828C469.513 2.72828 469.805 2.80136 470.049 2.94751C470.098 3.6783 470.171 4.33601 470.268 4.92064C470.366 5.50527 470.658 6.06555 471.145 6.60146C471.145 6.6989 471.145 6.79633 471.145 6.89377C471.194 6.99121 471.218 7.08865 471.218 7.18609C471.218 7.722 471.072 8.16047 470.78 8.50151C470.488 8.84254 470.317 9.25665 470.268 9.74385L466.468 13.5439C465.201 14.8106 464.032 16.1748 462.96 17.6364C462.571 17.6851 462.23 17.8069 461.937 18.0018C461.645 18.1966 461.353 18.4159 461.06 18.6595C460.817 18.8543 460.549 19.0492 460.256 19.2441C459.964 19.439 459.647 19.5851 459.306 19.6826C458.43 20.8518 457.431 21.9237 456.31 22.898C455.19 23.8237 454.045 24.725 452.876 25.602C451.706 26.4789 450.537 27.3802 449.368 28.3059C448.247 29.1828 447.2 30.1572 446.225 31.229C445.202 31.7162 444.203 32.3009 443.229 32.9829C442.303 33.6163 441.548 34.4201 440.964 35.3945H440.598C440.355 35.3945 440.16 35.4676 440.014 35.6138C439.867 35.7112 439.673 35.7599 439.429 35.7599C436.798 38.0497 434.07 40.2177 431.244 42.2639C428.418 44.2614 425.715 46.4538 423.132 48.841V50.668C423.961 51.1552 424.862 51.618 425.836 52.0565C426.811 52.4463 427.761 52.8847 428.686 53.3719C429.661 53.8591 430.562 54.395 431.39 54.9797C432.267 55.5156 433.022 56.1733 433.656 56.9528C433.753 56.9041 433.875 56.8797 434.021 56.8797C434.46 56.8797 434.801 57.0259 435.044 57.3182C435.288 57.5618 435.702 57.6349 436.287 57.5374C436.481 58.3169 436.92 58.8772 437.602 59.2182C438.284 59.5593 438.966 59.8516 439.648 60.0952C440.233 60.6798 440.769 61.2401 441.256 61.776C441.743 62.2632 442.45 62.5799 443.375 62.726C443.473 62.9209 443.546 63.1401 443.595 63.3837C443.643 63.6273 443.741 63.8466 443.887 64.0414C444.812 64.3338 445.689 64.7479 446.518 65.2838C447.395 65.8197 448.247 66.38 449.075 66.9646C449.904 67.5005 450.732 68.0364 451.56 68.5723C452.437 69.0595 453.363 69.4493 454.337 69.7416C454.483 70.2288 454.751 70.5698 455.141 70.7647C455.579 70.9596 455.92 71.2519 456.164 71.6416H457.479C457.626 71.8852 457.821 72.1288 458.064 72.3724C458.308 72.5673 458.478 72.8596 458.576 73.2494C458.965 73.3468 459.404 73.493 459.891 73.6878C460.378 73.834 460.817 74.0289 461.207 74.2725C461.353 74.4186 461.45 74.5892 461.499 74.784C461.596 74.9789 461.742 75.1494 461.937 75.2956C462.23 75.5392 462.668 75.7341 463.253 75.8802C463.886 75.9777 464.422 76.1482 464.86 76.3918C465.737 76.879 466.59 77.4149 467.418 77.9995C468.246 78.6329 469.123 79.2175 470.049 79.7534L472.899 81.2881C473.386 81.5316 473.825 81.7996 474.215 82.0919C474.653 82.3842 475.091 82.6522 475.53 82.8958C476.407 83.2855 477.333 83.5291 478.307 83.6266C479.33 83.7727 480.256 84.0407 481.084 84.4304C481.328 84.5766 481.498 84.7471 481.596 84.942C481.693 85.1856 481.863 85.3805 482.107 85.5266C482.497 85.7702 483.106 85.9407 483.934 86.0382C484.762 86.1356 485.444 86.3061 485.98 86.5497C486.662 86.842 487.32 87.11 487.953 87.3536C488.635 87.6459 489.318 87.9869 490 88.3767C491.461 88.4741 492.898 88.6447 494.311 88.8883C495.773 89.1318 497.21 89.3754 498.623 89.619C500.036 89.8626 501.449 90.0819 502.861 90.2767C504.323 90.4716 505.785 90.5447 507.246 90.496C507.246 90.5934 507.295 90.6421 507.392 90.6421C507.539 90.6909 507.66 90.7152 507.758 90.7152C508.099 91.2511 508.391 91.787 508.635 92.323C508.878 92.8589 509 93.4191 509 94.0038Z" fill="white"/>
</svg>
