<svg width="168" height="32" viewBox="0 0 168 32" fill="none" xmlns="http://www.w3.org/2000/svg">
<path d="M27.0015 11.4596C27.0015 11.7167 26.9533 11.9819 26.8569 12.2551C26.7765 12.5284 26.672 12.7775 26.5434 13.0025C26.3345 13.0347 26.1416 13.107 25.9648 13.2195C25.8041 13.332 25.6755 13.4043 25.5791 13.4365C25.3702 13.4686 25.121 13.4847 24.8317 13.4847C24.5585 13.4686 24.3094 13.4686 24.0844 13.4847C23.6504 13.5168 23.2165 13.565 22.7825 13.6293C22.3646 13.6936 21.9468 13.774 21.5289 13.8704C21.4967 13.8704 21.4646 13.8785 21.4324 13.8945C21.4003 13.8945 21.3842 13.9106 21.3842 13.9427C21.3842 13.9749 21.3923 14.007 21.4083 14.0392C21.4244 14.0713 21.4324 14.1035 21.4324 14.1356C21.4324 14.1838 21.3842 14.2079 21.2878 14.2079C21.111 14.2079 20.9905 14.1517 20.9262 14.0392C20.4119 14.1678 19.8975 14.3044 19.3832 14.449C18.8689 14.5776 18.3546 14.7062 17.8403 14.8348C17.5831 14.883 17.326 14.9312 17.0688 14.9794C16.8277 15.0276 16.5786 15.0919 16.3214 15.1723C16.1929 15.2044 16.0643 15.2607 15.9357 15.341L15.55 15.5821C15.4696 15.566 15.3973 15.558 15.333 15.558C15.2687 15.5419 15.2044 15.5339 15.1401 15.5339C14.8669 15.5339 14.5776 15.5902 14.2722 15.7027C13.9668 15.7991 13.7017 15.9357 13.4766 16.1125H13.3079C13.1472 16.1125 13.0347 16.0884 12.9704 16.0402C12.8257 16.0241 12.7373 16.0723 12.7052 16.1848C12.673 16.2813 12.6168 16.3697 12.5364 16.45C11.99 16.4982 11.4515 16.5947 10.9211 16.7393C10.3908 16.884 9.86841 17.0447 9.35409 17.2215C8.83978 17.3822 8.31743 17.551 7.78704 17.7278C7.27273 17.8885 6.75038 18.0171 6.21999 18.1135C6.1557 18.435 6.12356 18.8046 6.12356 19.2225C6.12356 19.5439 6.14766 19.9136 6.19588 20.3315C6.26017 20.7494 6.38875 21.103 6.58162 21.3923V21.4405C6.58162 21.5208 6.54947 21.5771 6.48518 21.6092C6.42089 21.6414 6.38875 21.6976 6.38875 21.778C6.38875 22.1959 6.42893 22.5897 6.50929 22.9593C6.60573 23.329 6.70216 23.6906 6.79859 24.0442C6.89503 24.3978 6.98342 24.7514 7.06379 25.105C7.16022 25.4586 7.20844 25.8202 7.20844 26.1899C7.20844 26.2863 7.2004 26.3747 7.18433 26.455C7.18433 26.5515 7.17629 26.6479 7.16022 26.7444C7.20844 26.889 7.2888 27.0095 7.40131 27.106C7.51381 27.2024 7.61025 27.3149 7.69061 27.4435C7.70668 27.5239 7.71472 27.5962 7.71472 27.6605V27.9016C7.71472 28.1748 7.68257 28.4159 7.61828 28.6248C7.55399 28.8338 7.47363 29.0266 7.3772 29.2034C7.28076 29.3963 7.17629 29.5811 7.06379 29.7579C6.95128 29.9508 6.84681 30.1597 6.75038 30.3847C6.58965 30.4169 6.46107 30.4329 6.36464 30.4329C6.12356 30.4329 5.92265 30.3687 5.76193 30.2401C5.61728 30.1115 5.4887 29.9508 5.37619 29.7579C5.26369 29.5811 5.15118 29.3963 5.03867 29.2034C4.94224 29.0105 4.8217 28.8498 4.67705 28.7212C4.69312 28.6409 4.70115 28.5686 4.70115 28.5043C4.71723 28.44 4.72526 28.3677 4.72526 28.2873C4.72526 27.9658 4.66901 27.6524 4.5565 27.3471C4.46007 27.0417 4.34756 26.7524 4.21899 26.4792C4.20291 25.9327 4.14666 25.3943 4.05023 24.8639C3.95379 24.3335 3.81718 23.8111 3.64038 23.2968C3.67253 23.104 3.69663 22.9191 3.71271 22.7423C3.72878 22.5495 3.73682 22.3646 3.73682 22.1878C3.73682 21.7217 3.71271 21.2556 3.66449 20.7896C3.61627 20.3235 3.60824 19.8574 3.64038 19.3913C3.59216 19.3109 3.54395 19.2466 3.49573 19.1984C3.44751 19.1341 3.40733 19.0618 3.37519 18.9814H3.27875C3.03767 18.9814 2.80462 19.0055 2.57961 19.0537C2.3546 19.0859 2.12958 19.102 1.90457 19.102C1.82421 19.102 1.75188 19.102 1.68759 19.102C1.6233 19.0859 0.634857 19.1341 0.554495 19.118C0.3777 18.9412 0.241085 18.7403 0.144651 18.5153C0.048217 18.2903 0 18.0573 0 17.8162C0 17.4626 0.0964339 17.1411 0.289302 16.8518C0.69111 16.7554 2.001 16.5786 2.38674 16.45C2.78855 16.3054 3.17428 16.1366 3.54395 15.9437C3.59216 15.7027 3.61627 15.4616 3.61627 15.2205C3.63235 14.9794 3.72074 14.7544 3.88147 14.5455C3.83325 14.4169 3.75289 14.3044 3.64038 14.2079C3.54395 14.0954 3.49573 13.9669 3.49573 13.8222C3.49573 13.7418 3.5118 13.6374 3.54395 13.5088C3.70467 13.332 3.81718 13.107 3.88147 12.8338C3.94576 12.5605 4.00201 12.2712 4.05023 11.9658C4.09844 11.6605 4.14666 11.3551 4.19488 11.0497C4.25917 10.7443 4.36364 10.4711 4.50829 10.23C4.47614 10.1015 4.45203 9.96484 4.43596 9.82019C4.41989 9.65947 4.41185 9.51482 4.41185 9.38624C4.41185 9.19337 4.41989 9.0005 4.43596 8.80763C4.46811 8.59869 4.51632 8.40583 4.58061 8.22903C4.40382 8.02009 4.25917 7.77901 4.14666 7.50578C4.03415 7.21647 3.9779 6.93521 3.9779 6.66198C3.9779 6.13159 4.23506 5.79407 4.74937 5.64942C4.7333 5.58513 4.71723 5.52888 4.70115 5.48066C4.70115 5.43245 4.70115 5.38423 4.70115 5.33601C4.70115 5.19136 4.74134 5.05475 4.8217 4.92617C4.90206 4.79759 4.96635 4.66901 5.01457 4.54043C4.9342 4.33149 4.89402 4.1547 4.89402 4.01005C4.89402 3.88147 4.91813 3.76896 4.96635 3.67253C5.01457 3.56002 5.05475 3.43948 5.08689 3.3109C5.13511 3.15018 5.16725 3.00552 5.18332 2.87695C5.21547 2.74837 5.26369 2.63586 5.32798 2.53943C5.39226 2.44299 5.47263 2.37067 5.56906 2.32245C5.68157 2.27423 5.85033 2.25013 6.07534 2.25013C6.42893 2.25013 6.76645 2.36263 7.08789 2.58764C7.42541 2.79658 7.68257 3.03767 7.85937 3.3109C8.03616 3.29483 8.18885 3.26268 8.31743 3.21446C8.46208 3.15018 8.59066 3.09392 8.70316 3.04571C8.83174 2.99749 8.96032 2.95731 9.0889 2.92516C9.23355 2.87695 9.40231 2.86087 9.59518 2.87695C9.64339 2.76444 9.72376 2.69211 9.83626 2.65997C9.96484 2.61175 10.0934 2.57961 10.222 2.56354C10.3506 2.53139 10.4711 2.49121 10.5836 2.44299C10.6961 2.39478 10.7685 2.30638 10.8006 2.1778C10.8649 2.22602 10.9372 2.25013 11.0176 2.25013C11.0979 2.25013 11.1783 2.24209 11.2587 2.22602C11.339 2.19387 11.4274 2.1778 11.5239 2.1778C11.6203 2.1778 11.7007 2.20994 11.7649 2.27423C12.1828 2.04922 12.6248 1.8885 13.0909 1.79206C13.5731 1.67956 14.0472 1.61527 14.5133 1.5992C15.6223 0.988448 16.7875 0.570568 18.009 0.345555C19.2466 0.120542 20.4842 0.00803616 21.7217 0.00803616C21.8985 0.00803616 22.0673 0.00803616 22.228 0.00803616C22.4048 -0.00803616 22.5736 0 22.7343 0.0321447C22.9111 0.0642893 23.104 0.120542 23.3129 0.200904C23.5379 0.281266 23.7549 0.3777 23.9638 0.490206C24.1888 0.602712 24.3978 0.731291 24.5907 0.875942C24.7835 1.00452 24.9442 1.12506 25.0728 1.23757C25.2014 1.52687 25.2657 1.80814 25.2657 2.08137C25.2657 2.20994 25.2577 2.33852 25.2416 2.4671C25.2255 2.57961 25.2175 2.70015 25.2175 2.82873C25.2175 3.0216 25.2577 3.23857 25.338 3.47966C25.2898 3.46359 25.2094 3.45555 25.0969 3.45555C24.9523 3.45555 24.8317 3.48769 24.7353 3.55198C24.6389 3.61627 24.5505 3.6886 24.4701 3.76896C24.3898 3.84932 24.3094 3.92165 24.229 3.98594C24.1647 4.05023 24.1005 4.08237 24.0362 4.08237C23.9076 4.08237 23.7951 4.05826 23.6986 4.01005C23.6183 3.96183 23.5299 3.91361 23.4334 3.86539C23.3531 3.8011 23.2647 3.75289 23.1683 3.72074C23.0718 3.67253 22.9593 3.65645 22.8307 3.67253V3.57609C22.8307 3.3993 22.7745 3.28679 22.662 3.23857C22.5495 3.17428 22.4611 3.08589 22.3968 2.97338C22.1557 2.95731 21.9146 2.92516 21.6735 2.87695C21.4485 2.82873 21.2155 2.80462 20.9744 2.80462C20.6529 2.80462 20.4038 2.91713 20.227 3.14214C20.1467 3.10999 20.0743 3.06981 20.01 3.0216C19.9618 2.97338 19.8895 2.95731 19.7931 2.97338H19.7207C18.8528 2.97338 18.001 3.06981 17.1652 3.26268C16.3295 3.43948 15.5018 3.66449 14.6821 3.93772C13.8624 4.19488 13.0427 4.47614 12.223 4.78152C11.4033 5.08689 10.5836 5.35208 9.76394 5.5771C9.57107 5.83425 9.37016 6.02712 9.16122 6.1557C8.95228 6.26821 8.74334 6.36464 8.5344 6.445C8.34154 6.52536 8.14867 6.60573 7.9558 6.68609C7.76293 6.76645 7.59417 6.89503 7.44952 7.07182C7.32094 7.24862 7.21647 7.49774 7.13611 7.81919C7.07182 8.12456 7.05575 8.55048 7.08789 9.09694C7.00753 9.19337 6.95932 9.29784 6.94324 9.41035C6.92717 9.52285 6.9111 9.63536 6.89503 9.74787C6.87895 9.8443 6.85485 9.94073 6.8227 10.0372C6.79056 10.1336 6.7343 10.222 6.65394 10.3024C6.68609 10.4631 6.7102 10.6238 6.72627 10.7845C6.74234 10.9453 6.75038 11.106 6.75038 11.2667C6.75038 11.9417 6.63787 12.6007 6.41286 13.2436C6.49322 13.3722 6.5334 13.5168 6.5334 13.6775C6.5334 13.8543 6.50929 14.0151 6.46107 14.1597C6.41286 14.3044 6.38875 14.4651 6.38875 14.6419C6.38875 14.8187 6.42089 14.9633 6.48518 15.0758C6.58162 15.0758 6.63787 15.108 6.65394 15.1723H6.79859C7.08789 15.1723 7.33702 15.0999 7.54596 14.9553C7.7549 14.8106 7.97991 14.7383 8.22099 14.7383C8.26921 14.7383 8.32546 14.7544 8.38975 14.7865C8.45404 14.8187 8.5103 14.8348 8.55851 14.8348C8.67102 14.8348 8.71924 14.7946 8.70316 14.7142C8.68709 14.6339 8.72727 14.5776 8.82371 14.5455L9.69161 14.4008C10.2381 14.3044 10.7524 14.1919 11.2346 14.0633C11.7328 13.9186 12.223 13.7097 12.7052 13.4365C12.8177 13.4847 12.9463 13.5088 13.0909 13.5088C13.2195 13.5088 13.3561 13.4927 13.5008 13.4606C13.6454 13.4124 13.782 13.3882 13.9106 13.3882C14.0231 13.3882 14.1115 13.4043 14.1758 13.4365C14.2722 13.3722 14.3928 13.324 14.5374 13.2918C14.6821 13.2436 14.7624 13.1472 14.7785 13.0025H14.8267C14.891 13.0025 14.9392 13.0186 14.9714 13.0507C15.0035 13.0829 15.0517 13.0989 15.116 13.0989H15.2125C15.55 12.9382 15.8553 12.8177 16.1286 12.7373C16.5786 12.6248 17.0608 12.5284 17.5751 12.448C18.0894 12.3516 18.5475 12.1909 18.9493 11.9658C19.4154 11.9658 19.8654 11.8935 20.2993 11.7489C20.7494 11.5881 21.1994 11.5078 21.6494 11.5078C21.8584 11.5078 22.0512 11.5399 22.228 11.6042C22.3887 11.4917 22.5736 11.4114 22.7825 11.3631C23.0075 11.3149 23.1924 11.2265 23.337 11.0979C23.4334 11.114 23.5299 11.1301 23.6263 11.1462C23.7388 11.1462 23.8513 11.1462 23.9638 11.1462C24.446 11.1462 24.9041 11.0819 25.338 10.9533C25.788 10.8086 26.2461 10.7042 26.7122 10.6399C26.8247 10.7685 26.897 10.9051 26.9292 11.0497C26.9774 11.1783 27.0015 11.3149 27.0015 11.4596Z" fill="white"/>
<path d="M40.537 23.8513C40.4888 24.0763 40.3843 24.2612 40.2236 24.4058C40.0789 24.5344 39.9021 24.6389 39.6932 24.7192C39.4842 24.7996 39.2673 24.8559 39.0422 24.888C38.8333 24.9041 38.6404 24.9121 38.4636 24.9121C38.3833 24.9121 38.3029 24.9121 38.2226 24.9121C38.1583 24.896 38.0859 24.888 38.0056 24.888C37.9252 24.888 37.885 24.9282 37.885 25.0085C37.885 25.0889 37.8449 25.1452 37.7645 25.1773C37.6841 25.1452 37.6038 25.121 37.5234 25.105C37.443 25.0889 37.3627 25.0809 37.2823 25.0809C37.1698 25.0809 37.0573 25.0889 36.9448 25.105C36.8484 25.121 36.7519 25.1291 36.6555 25.1291C36.5269 25.1291 36.4305 25.113 36.3662 25.0809C36.318 25.0487 36.2698 25.0166 36.2216 24.9844C36.1894 24.9362 36.1492 24.888 36.101 24.8398C36.0689 24.7916 36.0126 24.7514 35.9323 24.7192C35.8197 24.671 35.7233 24.663 35.6429 24.6951C35.5787 24.7273 35.4742 24.6791 35.3295 24.5505C35.1367 24.3898 34.9679 24.1969 34.8233 23.9719C34.6947 23.7308 34.5661 23.4817 34.4375 23.2245C34.3089 22.9674 34.1723 22.7102 34.0277 22.453C33.883 22.1959 33.7143 21.9709 33.5214 21.778H33.3285C33.0392 21.778 32.8383 21.8985 32.7258 22.1396C32.6455 22.0914 32.5651 22.0352 32.4847 21.9709C32.4044 21.8905 32.316 21.8262 32.2195 21.778C31.8499 21.8905 31.4641 21.9869 31.0623 22.0673C30.6605 22.1477 30.2587 22.1878 29.8569 22.1878H29.5194C29.423 22.1878 29.3185 22.1718 29.206 22.1396C29.0453 22.2039 28.9006 22.2843 28.772 22.3807C28.6435 22.4611 28.4988 22.5013 28.3381 22.5013C28.2416 22.5013 28.1291 22.4691 28.0006 22.4048C27.9041 22.4048 27.8559 22.445 27.8559 22.5254C27.872 22.6057 27.8238 22.6459 27.7113 22.6459H27.4943C27.2693 22.6459 27.0443 22.6539 26.8192 22.67C26.6103 22.6861 26.3933 22.6941 26.1683 22.6941C25.8629 22.6941 25.5495 22.6539 25.2281 22.5736C25.1477 22.6218 25.0593 22.6459 24.9629 22.6459C24.8986 22.6781 24.8504 22.7343 24.8182 22.8147C24.7861 22.879 24.7539 22.9432 24.7218 23.0075C24.6897 23.0558 24.6414 23.104 24.5772 23.1522C24.5289 23.1843 24.4566 23.1924 24.3602 23.1763C24.328 23.3692 24.2477 23.5218 24.1191 23.6344C23.9905 23.7469 23.9262 23.9156 23.9262 24.1406C23.7494 24.2371 23.6048 24.3576 23.4923 24.5023C23.3798 24.6469 23.2673 24.7996 23.1548 24.9603C23.0422 25.121 22.9217 25.2737 22.7931 25.4184C22.6806 25.563 22.536 25.6755 22.3592 25.7559C22.2788 25.8523 22.2547 26.005 22.2868 26.214C22.1101 26.3586 21.8931 26.4872 21.6359 26.5997C21.3788 26.7122 21.1377 26.7685 20.9127 26.7685C20.4466 26.7685 20.1251 26.5193 19.9483 26.0211C19.9483 25.8604 19.9644 25.6916 19.9965 25.5148C20.0126 25.3219 20.0448 25.1452 20.093 24.9844C20.1412 24.8076 20.2135 24.6549 20.31 24.5264C20.4064 24.3817 20.543 24.2772 20.7198 24.213C20.7198 24.0683 20.6716 23.9719 20.5751 23.9237C20.4787 23.8594 20.4385 23.7549 20.4546 23.6102C20.8886 23.4013 21.2663 23.1281 21.5877 22.7906C21.9091 22.453 22.1985 22.0994 22.4556 21.7298C22.7288 21.344 23.0021 20.9583 23.2753 20.5726C23.5485 20.1868 23.8539 19.8413 24.1914 19.5359V19.0296C24.6736 18.5153 24.987 17.9367 25.1316 17.2938C25.3084 17.2617 25.421 17.1813 25.4692 17.0527C25.5335 16.9242 25.5656 16.7715 25.5656 16.5947C25.646 16.5947 25.6942 16.5625 25.7103 16.4982C25.7424 16.4179 25.8147 16.3938 25.9272 16.4259C26.0719 16.0402 26.2326 15.6866 26.4094 15.3651C26.5862 15.0437 26.763 14.7222 26.9398 14.4008C27.1166 14.0633 27.2693 13.7177 27.3978 13.3641C27.5425 13.0105 27.647 12.6168 27.7113 12.1828C27.9363 12.1668 28.0568 12.0623 28.0729 11.8694C28.105 11.6605 28.1372 11.4756 28.1693 11.3149C28.4104 11.0899 28.5872 10.8247 28.6997 10.5193C28.8283 10.214 28.9408 9.90055 29.0372 9.57911C29.1337 9.24159 29.2381 8.9121 29.3506 8.59066C29.4792 8.25314 29.2944 7.42541 29.5194 7.16826V7.09593C29.5194 7.01557 29.4872 6.96735 29.423 6.95128C29.3587 6.91914 29.3265 6.86288 29.3265 6.78252C29.3426 6.76645 29.3506 6.75038 29.3506 6.7343C29.5435 6.65394 29.6882 6.52536 29.7846 6.34857C29.881 6.1557 30.0257 6.01909 30.2185 5.93872C30.5561 6.21195 31.215 6.9111 31.4722 6.97539C31.7293 7.02361 32.0669 7.06379 32.4847 7.09593C32.6937 7.32094 32.8062 7.59417 32.8223 7.91562C32.8544 8.22099 32.9107 8.52637 32.991 8.83174C33.1196 9.34606 33.2562 9.85234 33.4009 10.3506C33.5616 10.8327 33.6821 11.331 33.7625 11.8453C33.8107 12.1507 33.8991 12.44 34.0277 12.7132C34.1563 12.9864 34.2447 13.2677 34.2929 13.557C34.325 13.782 34.325 14.0392 34.2929 14.3285C34.2607 14.6017 34.2929 14.8428 34.3893 15.0517L34.5581 15.4375C34.6384 15.6143 34.7027 15.7991 34.7509 15.992C34.8152 16.1848 34.8715 16.3777 34.9197 16.5706C35.0483 17.0527 35.1608 17.5751 35.2572 18.1376C35.3697 18.6841 35.5385 19.1823 35.7635 19.6323C35.8439 19.7931 35.9644 19.9056 36.1251 19.9699C36.3019 20.0342 36.4948 20.0824 36.7037 20.1145C36.9127 20.1306 37.1136 20.1386 37.3064 20.1386C37.5154 20.1226 37.6922 20.1145 37.8368 20.1145H38.0779C38.1743 20.1145 38.2708 20.1306 38.3672 20.1627C38.4315 20.2913 38.4636 20.4038 38.4636 20.5003C38.4636 20.6931 38.3994 20.8458 38.2708 20.9583C38.1422 21.0708 38.0779 21.1994 38.0779 21.344C38.0779 21.4244 38.1101 21.5128 38.1743 21.6092C38.1101 21.5932 38.0136 21.5851 37.885 21.5851C37.5154 21.5851 37.1537 21.6494 36.8002 21.778C36.9287 22.0512 37.0975 22.2843 37.3064 22.4771C37.5314 22.6539 37.7645 22.8227 38.0056 22.9834C38.1663 22.8548 38.3351 22.7906 38.5119 22.7906C38.7047 22.7906 38.8815 22.8388 39.0422 22.9352C39.219 23.0156 39.4039 23.0558 39.5967 23.0558C39.7414 23.0558 39.8459 23.0316 39.9102 22.9834C40.0387 23.1281 40.1432 23.2808 40.2236 23.4415C40.3039 23.5861 40.4084 23.7228 40.537 23.8513ZM32.991 19.994C32.9589 19.7207 32.9026 19.5279 32.8223 19.4154C32.758 19.2868 32.7017 19.1341 32.6535 18.9573C32.5892 18.7323 32.541 18.4912 32.5088 18.2341C32.4928 17.9769 32.4606 17.7278 32.4124 17.4867C32.2999 16.9402 32.1713 16.3938 32.0267 15.8473C31.8981 15.3009 31.7293 14.7705 31.5204 14.2562C31.5847 14.1597 31.6168 14.0713 31.6168 13.991V13.9186C31.4722 13.7579 31.3677 13.565 31.3034 13.34C31.2391 13.0989 31.1748 12.8659 31.1106 12.6409C31.0623 12.3998 30.99 12.1828 30.8936 11.99C30.8132 11.781 30.6766 11.6123 30.4837 11.4837C30.4355 11.5801 30.4114 11.6926 30.4114 11.8212C30.4114 11.9337 30.4194 12.0382 30.4355 12.1346C30.4677 12.231 30.4837 12.3355 30.4837 12.448C30.323 12.5284 30.2025 12.657 30.1221 12.8338C30.0578 12.9945 29.9453 13.1231 29.7846 13.2195C29.656 13.7338 29.4712 14.224 29.2301 14.6901C28.989 15.1401 28.7318 15.5902 28.4586 16.0402C28.2015 16.4902 27.9523 16.9483 27.7113 17.4144C27.4702 17.8644 27.2773 18.3385 27.1327 18.8368C26.9237 18.9814 26.7791 19.1662 26.6987 19.3913C26.6344 19.6163 26.6023 19.8413 26.6023 20.0663C26.7469 20.1467 26.9076 20.1949 27.0844 20.2109C27.2773 20.2109 27.4621 20.2109 27.6389 20.2109C27.8157 20.2109 27.9845 20.227 28.1452 20.2592C28.3059 20.2913 28.4506 20.3717 28.5792 20.5003C28.7881 20.436 29.0131 20.3958 29.2542 20.3797C29.5114 20.3476 29.7203 20.2752 29.881 20.1627C30.2025 20.2752 30.548 20.3315 30.9177 20.3315C31.1106 20.3315 31.2954 20.3154 31.4722 20.2833C31.665 20.2511 31.8499 20.2109 32.0267 20.1627C32.1713 20.1949 32.2838 20.2511 32.3642 20.3315C32.4446 20.3958 32.5651 20.4199 32.7258 20.4038C32.8062 20.3395 32.8544 20.2752 32.8705 20.2109C32.8865 20.1306 32.9267 20.0583 32.991 19.994Z" fill="white"/>
<path d="M55.9529 9.77197C55.9208 9.96484 55.8725 10.1336 55.8082 10.2783C55.76 10.4068 55.752 10.5836 55.7841 10.8086C55.6234 10.8247 55.4948 10.881 55.3984 10.9774C55.318 11.0578 55.2457 11.1542 55.1814 11.2667C55.1332 11.3792 55.077 11.4997 55.0127 11.6283C54.9645 11.7408 54.9002 11.8453 54.8198 11.9417C54.9484 12.5203 55.0207 13.107 55.0368 13.7017C55.0529 14.2963 55.093 14.883 55.1573 15.4616C55.2377 16.2009 55.3582 16.9322 55.5189 17.6554C55.6957 18.3626 55.7841 19.0859 55.7841 19.8252C55.7841 20.0502 55.7761 20.2592 55.76 20.452C55.76 20.6449 55.76 20.8458 55.76 21.0547C55.76 21.1833 55.76 21.3199 55.76 21.4646C55.7761 21.5932 55.7841 21.7217 55.7841 21.8503C55.7841 22.3164 55.7199 22.7825 55.5913 23.2486C55.4788 23.7147 55.3904 24.1808 55.3261 24.6469C55.1332 24.8237 54.9645 25.0166 54.8198 25.2255C54.6912 25.4345 54.5546 25.6273 54.41 25.8041C54.2653 25.9809 54.0965 26.1336 53.9037 26.2622C53.7108 26.4068 53.4697 26.5033 53.1804 26.5515C53.1322 26.7122 53.0358 26.8327 52.8911 26.9131C52.7625 26.9935 52.65 27.106 52.5536 27.2506H52.5054C52.1036 27.2506 51.758 27.1944 51.4687 27.0819C51.1794 26.9694 50.9062 26.8408 50.649 26.6961C50.4079 26.5515 50.1588 26.3988 49.9017 26.2381C49.6445 26.0773 49.3472 25.9488 49.0097 25.8523C48.5596 25.4827 48.1498 25.0809 47.7801 24.6469C47.4105 24.1969 46.9926 23.7951 46.5265 23.4415C46.414 23.12 46.2613 22.8548 46.0684 22.6459C45.8916 22.437 45.7148 22.1959 45.538 21.9227C45.4577 21.8101 45.3934 21.7057 45.3452 21.6092C45.313 21.5128 45.2648 21.4003 45.2005 21.2717C45.1523 21.1431 45.0719 21.0547 44.9594 21.0065C44.863 20.9583 44.7746 20.9021 44.6942 20.8378C44.5657 20.3395 44.3808 19.8815 44.1397 19.4636C43.8987 19.0457 43.6174 18.6439 43.2959 18.2582C43.1995 18.435 43.1192 18.6278 43.0549 18.8368C43.0066 19.0296 42.9584 19.2305 42.9102 19.4395C42.862 19.6323 42.7977 19.8332 42.7173 20.0422C42.6531 20.2351 42.5647 20.4119 42.4522 20.5726V20.6449C42.4522 20.7253 42.4843 20.7735 42.5486 20.7896C42.6129 20.8056 42.645 20.8538 42.645 20.9342C42.645 20.9503 42.637 20.9663 42.6209 20.9824C42.6209 20.9985 42.6209 21.0146 42.6209 21.0306C42.5405 21.0949 42.4763 21.1753 42.428 21.2717C42.3959 21.3682 42.3155 21.4244 42.187 21.4405C42.203 21.5208 42.2111 21.6012 42.2111 21.6816V21.8985C42.2111 22.3646 42.1548 22.8307 42.0423 23.2968C41.9459 23.7629 41.8977 24.2371 41.8977 24.7192V25.0326C41.8977 25.1452 41.9057 25.2496 41.9218 25.3461C41.9539 25.4425 42.0021 25.5389 42.0664 25.6354C42.1307 25.7318 42.8379 26.2908 42.8379 26.3712C42.8379 26.4837 42.7897 26.5882 42.6932 26.6846C42.8057 26.7649 42.9343 26.8533 43.079 26.9498C43.2236 27.0462 43.3522 27.1507 43.4647 27.2632C43.5933 27.3918 43.6978 27.5203 43.7781 27.6489C43.8585 27.7936 43.8987 27.9463 43.8987 28.107C43.8987 28.3802 43.8103 28.5731 43.6335 28.6856C43.4567 28.7981 43.2397 28.8865 42.9825 28.9508C42.7415 29.0151 42.4843 29.0713 42.2111 29.1195C41.9539 29.1838 41.0619 28.8177 40.8851 28.9623H40.8128C40.6199 28.9623 40.4753 28.9061 40.3788 28.7936C40.2824 28.6811 40.1377 28.6248 39.9449 28.6248C39.6395 28.1266 39.4306 27.564 39.318 26.9372C39.2055 26.3265 39.1493 25.7398 39.1493 25.1773C39.1493 24.4862 39.2136 23.7951 39.3422 23.104C39.4547 22.4129 39.5993 21.7298 39.7761 21.0547C39.9368 20.3797 40.1136 19.7127 40.3065 19.0537C40.5154 18.3787 40.7083 17.7037 40.8851 17.0286L40.9092 16.9563C40.9092 16.8759 40.8851 16.8197 40.8369 16.7875C40.8047 16.7554 40.7887 16.7072 40.7887 16.6429C40.7887 16.6107 40.7967 16.5947 40.8128 16.5947C40.861 16.434 40.9092 16.2813 40.9574 16.1366C41.0217 15.992 41.0699 15.8312 41.1021 15.6544C41.1985 15.2044 41.2628 14.7464 41.2949 14.2803C41.3432 13.7981 41.3673 13.324 41.3673 12.8579C41.3833 12.3918 41.3994 11.9257 41.4155 11.4596C41.4476 10.9774 41.5039 10.5033 41.5842 10.0372C41.7128 9.90859 41.8334 9.77197 41.9459 9.62732C42.0584 9.48267 42.203 9.35409 42.3798 9.24159C42.7013 9.25766 43.0227 9.30588 43.3442 9.38624C43.6656 9.4666 43.971 9.59518 44.2603 9.77197C44.4532 10.4631 44.5817 11.1542 44.646 11.8453C44.7264 12.5364 44.855 13.2275 45.0318 13.9186V13.991C45.0318 14.0713 45.0719 14.1115 45.1523 14.1115C45.2487 14.0954 45.3211 14.1195 45.3693 14.1838C45.3371 14.232 45.313 14.2883 45.297 14.3526C45.297 14.4169 45.297 14.4812 45.297 14.5455V14.9553C45.3291 15.0839 45.3693 15.2205 45.4175 15.3651C45.4657 15.5098 45.5702 15.5982 45.7309 15.6303C45.8113 16.1447 45.9318 16.6188 46.0925 17.0527C46.2533 17.4867 46.4381 17.9046 46.647 18.3064C46.856 18.7082 47.081 19.11 47.3221 19.5118C47.5632 19.8975 47.8123 20.3074 48.0694 20.7413C48.4712 21.0467 48.8168 21.4003 49.1061 21.8021C49.3954 22.1878 49.6847 22.5655 49.974 22.9352C50.2794 23.2888 50.6169 23.6022 50.9866 23.8754C51.3723 24.1487 51.8705 24.3174 52.4813 24.3817C52.5616 24.3174 52.6179 24.229 52.65 24.1165L52.7706 23.779C52.8188 23.6665 52.867 23.5701 52.9152 23.4897C52.9795 23.3933 53.0679 23.3209 53.1804 23.2727C53.2126 22.8227 53.2447 22.3646 53.2769 21.8985C53.3251 21.4324 53.4295 20.9905 53.5903 20.5726C53.5099 20.4279 53.4697 20.2511 53.4697 20.0422C53.4697 19.8815 53.4778 19.7288 53.4938 19.5841C53.526 19.4395 53.5421 19.2948 53.5421 19.1502C53.5421 18.8448 53.4778 18.5957 53.3492 18.4028C53.3492 18.2903 53.3572 18.1778 53.3733 18.0653C53.3894 17.9367 53.4376 17.8162 53.5179 17.7037C53.3894 17.3822 53.2849 17.0447 53.2045 16.6911C53.1402 16.3375 53.1081 15.9759 53.1081 15.6062C53.1081 15.3973 53.1322 15.1803 53.1804 14.9553C53.084 14.7142 53.0197 14.4329 52.9876 14.1115L52.8911 13.1231C52.859 12.7855 52.8108 12.4721 52.7465 12.1828C52.6822 11.8935 52.5616 11.6605 52.3848 11.4837C52.4813 11.339 52.5295 11.1703 52.5295 10.9774C52.5295 10.656 52.4813 10.3506 52.3848 10.0613C52.2884 9.77197 52.2402 9.4666 52.2402 9.14515C52.2402 8.92014 52.2884 8.69513 52.3848 8.47012C52.7384 8.48619 53.084 8.52637 53.4215 8.59066C53.7751 8.63888 54.1207 8.66298 54.4582 8.66298C54.5546 8.79156 54.6671 8.89603 54.7957 8.97639C54.9243 9.05676 55.0609 9.13712 55.2055 9.21748C55.3502 9.28177 55.4868 9.35409 55.6154 9.43446C55.76 9.51482 55.8725 9.62732 55.9529 9.77197Z" fill="white"/>
<path d="M74.3101 13.7258C74.3101 13.8865 74.2538 13.991 74.1413 14.0392C74.0288 14.0874 73.9726 14.1838 73.9726 14.3285C73.9726 14.3767 73.9886 14.4169 74.0208 14.449C74.0529 14.4812 74.069 14.5294 74.069 14.5937V14.6901C73.8761 15.6223 73.5949 16.434 73.2252 17.1251C72.8716 17.8162 72.4537 18.451 71.9715 19.0296C71.4894 19.6082 70.9429 20.1547 70.3322 20.669C69.7375 21.1833 69.0946 21.7217 68.4035 22.2843C68.2106 22.445 68.0097 22.6057 67.8008 22.7664C67.6079 22.9272 67.4231 23.0959 67.2463 23.2727L66.7159 23.779C66.6998 23.7951 66.6114 23.8353 66.4507 23.8995C66.29 23.9478 66.1935 23.9799 66.1614 23.996C65.9364 24.0924 65.6953 24.2049 65.4381 24.3335C65.1971 24.4621 64.9881 24.6228 64.8113 24.8157C64.4899 24.8157 64.2167 24.8639 63.9916 24.9603C63.7666 25.0568 63.5175 25.1853 63.2443 25.3461C63.1639 25.3461 63.0916 25.33 63.0273 25.2978C62.9791 25.2657 62.9228 25.2336 62.8585 25.2014C62.7943 25.1693 62.7219 25.1532 62.6416 25.1532C62.5773 25.1371 62.4889 25.1452 62.3764 25.1773C62.1835 24.8559 61.9746 24.5826 61.7495 24.3576C61.5245 24.1326 61.2192 23.996 60.8334 23.9478C60.7852 23.6745 60.6727 23.4656 60.4959 23.3209C60.3191 23.1602 60.1423 22.9915 59.9655 22.8147C59.9334 22.7182 59.9093 22.6057 59.8932 22.4771C59.8771 22.3486 59.845 22.228 59.7968 22.1155C59.7485 22.003 59.6843 21.9066 59.6039 21.8262C59.5235 21.7459 59.411 21.7057 59.2664 21.7057C59.2503 21.6092 59.2905 21.561 59.3869 21.561C59.4834 21.561 59.5316 21.5208 59.5316 21.4405C59.5316 21.344 59.5155 21.2476 59.4834 21.1512C59.4512 21.0547 59.4351 20.9503 59.4351 20.8378C59.4351 20.7574 59.4432 20.6851 59.4592 20.6208C59.4753 20.5565 59.4994 20.4842 59.5316 20.4038C59.4834 19.9699 59.4592 19.5279 59.4592 19.0778C59.4592 18.2099 59.5155 17.3581 59.628 16.5224C59.7566 15.6705 59.8209 14.8106 59.8209 13.9427C59.8209 13.557 59.7968 13.1713 59.7485 12.7855C59.7164 12.3998 59.6441 12.0221 59.5316 11.6524C59.1619 11.7328 58.7922 11.8292 58.4226 11.9417C58.0529 12.0382 57.7074 12.1748 57.3859 12.3516C57.2091 12.2391 57.0243 12.1748 56.8314 12.1587C56.6225 12.1266 56.4216 12.0784 56.2287 12.0141C56.1162 11.7891 56.0599 11.556 56.0599 11.3149C56.0599 11.0899 56.1001 10.8729 56.1805 10.664L56.4216 10.0372C56.8073 9.95681 57.193 9.83626 57.5788 9.67554C57.9484 9.51482 58.3261 9.37017 58.7119 9.24159C58.8405 9.20944 59.0012 9.16926 59.1941 9.12104C59.403 9.07283 59.5476 9.03265 59.628 9.0005C59.7405 8.95229 59.8128 8.86389 59.845 8.73531C59.8932 8.59066 59.9575 8.47012 60.0378 8.37368H60.4477C60.5441 8.37368 60.6486 8.38172 60.7611 8.39779C60.8736 8.39779 60.9781 8.4219 61.0745 8.47012C61.6531 8.32546 62.2317 8.23707 62.8103 8.20492C63.3889 8.15671 63.9836 8.09242 64.5944 8.01205C64.6586 8.01205 64.7551 8.00402 64.8837 7.98795L65.2935 7.91562C65.4381 7.88348 65.5667 7.85937 65.6792 7.8433C65.8078 7.81115 65.8962 7.79508 65.9444 7.79508C65.9926 7.79508 66.0168 7.81919 66.0168 7.8674H66.4266C67.1177 7.8674 67.7927 7.9558 68.4517 8.1326L70.4286 8.66298C70.7018 8.888 70.9751 9.10497 71.2483 9.31391C71.5215 9.52285 71.8269 9.70768 72.1644 9.86841C72.2448 10.1256 72.3653 10.3345 72.526 10.4952C72.7028 10.6399 72.8957 10.8006 73.1046 10.9774C73.185 11.1863 73.2895 11.4114 73.4181 11.6524C73.5627 11.8774 73.6993 12.1105 73.8279 12.3516C73.9565 12.5927 74.069 12.8338 74.1654 13.0748C74.2619 13.2998 74.3101 13.5168 74.3101 13.7258ZM72.068 14.0874C71.8912 13.7177 71.7224 13.332 71.5617 12.9302C71.401 12.5284 71.2001 12.1668 70.959 11.8453C70.6697 11.7649 70.3724 11.6685 70.067 11.556C69.7777 11.4274 69.5768 11.2104 69.4643 10.9051C69.4321 10.9211 69.3759 10.9292 69.2955 10.9292C69.1509 10.9292 69.0223 10.8729 68.9098 10.7604C68.7973 10.6479 68.6687 10.5756 68.524 10.5434C68.3955 10.5274 68.2187 10.5033 67.9936 10.4711C67.7847 10.439 67.5597 10.4149 67.3186 10.3988C67.0775 10.3827 66.8364 10.3667 66.5954 10.3506C66.3703 10.3345 66.1935 10.3265 66.065 10.3265C65.9364 10.3265 65.7998 10.3345 65.6551 10.3506C65.5265 10.3506 65.3899 10.3586 65.2453 10.3747C65.1167 10.3747 65.0363 10.3988 65.0042 10.447C64.9721 10.4792 64.9078 10.5113 64.8113 10.5434C64.731 10.5113 64.6426 10.4952 64.5461 10.4952H64.2568C63.9193 10.4952 63.5818 10.5515 63.2443 10.664C62.9228 10.7604 62.6014 10.897 62.2799 11.0738V11.1703C62.2799 11.2988 62.3362 11.3712 62.4487 11.3872C62.5612 11.4033 62.6255 11.4676 62.6416 11.5801C62.5612 11.5801 62.4969 11.5881 62.4487 11.6042C62.4005 11.6042 62.3764 11.6605 62.3764 11.773C62.3764 11.9337 62.3924 12.1105 62.4246 12.3034C62.4728 12.4962 62.4969 12.6891 62.4969 12.882C62.4969 13.0266 62.4808 13.1954 62.4487 13.3882C62.4166 13.5811 62.3362 13.7338 62.2076 13.8463C62.3683 13.991 62.4487 14.1838 62.4487 14.4249C62.4487 14.5856 62.4166 14.7544 62.3523 14.9312C62.288 15.108 62.2076 15.2607 62.1112 15.3893C62.079 16.0643 62.0147 16.7474 61.9183 17.4385C61.8219 18.1296 61.7737 18.8127 61.7737 19.4877C61.7737 19.8252 61.7897 20.1547 61.8219 20.4761C61.8701 20.7976 61.9424 21.119 62.0389 21.4405C62.2156 21.6173 62.4005 21.7539 62.5933 21.8503C62.8023 21.9468 63.0193 22.0432 63.2443 22.1396V22.212C63.2443 22.2602 63.2121 22.3084 63.1478 22.3566C63.0836 22.4048 63.0514 22.4691 63.0514 22.5495C63.0514 22.6138 63.0836 22.6459 63.1478 22.6459C63.8229 22.453 64.4577 22.22 65.0524 21.9468C65.6471 21.6735 66.2016 21.3039 66.7159 20.8378C66.7641 20.7896 66.8123 20.7654 66.8605 20.7654C66.8927 20.7654 66.9329 20.7735 66.9811 20.7896C67.0454 20.8056 67.1016 20.8217 67.1499 20.8378L67.1257 20.7413C67.1257 20.6449 67.1499 20.5565 67.1981 20.4761C67.2624 20.3958 67.3347 20.3235 67.415 20.2592L67.6561 20.0422C67.7365 19.9618 67.8008 19.8815 67.849 19.8011C67.9776 19.769 68.066 19.7047 68.1142 19.6082C68.1785 19.5118 68.2829 19.4636 68.4276 19.4636C68.4597 19.2868 68.5481 19.1582 68.6928 19.0778C68.8374 18.9814 68.9258 18.8448 68.958 18.668C69.2794 18.4912 69.5607 18.2742 69.8018 18.0171C70.0589 17.7599 70.292 17.4867 70.5009 17.1974C70.7259 16.9081 70.9349 16.6107 71.1278 16.3054C71.3206 15.9839 71.5215 15.6786 71.7305 15.3893V15.2928C71.7305 15.0357 71.7706 14.8267 71.851 14.666C71.9474 14.5053 72.0198 14.3124 72.068 14.0874Z" fill="white"/>
<path d="M90.3769 11.6524C90.2805 11.7971 90.2242 11.9578 90.2082 12.1346C90.1921 12.3114 90.1841 12.4721 90.1841 12.6168C90.1841 12.8096 90.1841 13.0025 90.1841 13.1954C90.2001 13.3722 90.2082 13.549 90.2082 13.7258V14.0874C90.176 14.1999 90.1278 14.3124 90.0635 14.4249C89.9992 14.5374 89.951 14.6499 89.9189 14.7624C89.6939 15.3571 89.5813 15.9518 89.5813 16.5465V16.5947C89.501 16.7875 89.4206 16.9643 89.3403 17.1251C89.276 17.2858 89.2117 17.4465 89.1474 17.6072C89.0831 17.7519 89.0349 17.9126 89.0027 18.0894C88.9706 18.2501 88.9626 18.443 88.9786 18.668C88.7536 19.2305 88.4563 19.7449 88.0866 20.2109C87.717 20.661 87.3553 21.1271 87.0017 21.6092C86.6642 21.7378 86.3508 21.9066 86.0615 22.1155C85.7883 22.3245 85.5231 22.5575 85.2659 22.8147C84.7677 22.9754 84.2775 23.1602 83.7953 23.3692C83.3131 23.5781 82.8792 23.8594 82.4935 24.213C82.1881 24.2451 81.8827 24.2933 81.5773 24.3576C81.272 24.4219 80.9746 24.5183 80.6853 24.6469H80.396C80.2514 24.6469 80.1469 24.6148 80.0826 24.5505C79.8737 24.663 79.6567 24.7433 79.4317 24.7916C79.2067 24.8237 78.9817 24.8398 78.7566 24.8398C78.4673 24.8398 78.178 24.8237 77.8887 24.7916C77.6155 24.7433 77.3342 24.6951 77.0449 24.6469C76.8842 24.4219 76.6592 24.2531 76.3699 24.1406C76.0806 24.0121 75.8234 23.8915 75.5984 23.779C75.1323 23.1361 74.7948 22.5173 74.5859 21.9227C74.3769 21.3119 74.16 20.6288 73.9349 19.8734C73.9671 19.6484 74.0233 19.4314 74.1037 19.2225C74.1841 18.9975 74.2162 18.7564 74.2001 18.4992C74.4894 17.6635 74.8671 16.9081 75.3332 16.233C75.8154 15.5419 76.3619 14.883 76.9726 14.2562C76.9726 14.1597 76.9887 14.0794 77.0208 14.0151C77.069 13.9508 77.0771 13.8543 77.0449 13.7258C77.061 13.7418 77.0932 13.7499 77.1414 13.7499C77.2699 13.7499 77.3503 13.7177 77.3825 13.6534C77.4146 13.5731 77.4226 13.4847 77.4066 13.3882C77.9852 13.0186 78.5075 12.5927 78.9736 12.1105C79.4558 11.6283 80.0022 11.2265 80.613 10.9051C80.6612 10.7604 80.7416 10.6399 80.8541 10.5434C80.9666 10.447 81.055 10.3345 81.1193 10.2059C81.6336 10.0613 82.0997 9.8443 82.5176 9.555C82.9354 9.2657 83.3774 9.00854 83.8435 8.78353C84.1007 8.63888 84.3418 8.54244 84.5668 8.49422C84.8079 8.42993 85.065 8.36565 85.3383 8.30136C85.4347 8.26921 85.5231 8.2451 85.6034 8.22903C85.6838 8.21296 85.7722 8.20492 85.8686 8.20492C86.1579 8.20492 86.4392 8.26118 86.7124 8.37368C86.9857 8.47012 87.2669 8.51833 87.5562 8.51833C87.6366 8.51833 87.7009 8.51833 87.7491 8.51833C87.8134 8.50226 87.8777 8.48619 87.942 8.47012C88.2152 8.80763 88.5608 9.06479 88.9786 9.24159C89.0751 9.48267 89.1876 9.69161 89.3162 9.86841C89.4608 10.0452 89.6055 10.222 89.7501 10.3988C89.8948 10.5595 90.0233 10.7443 90.1358 10.9533C90.2644 11.1462 90.3448 11.3792 90.3769 11.6524ZM87.9661 12.9061C87.9661 12.8257 87.958 12.7534 87.942 12.6891C87.7812 12.6409 87.6286 12.5766 87.4839 12.4962C87.3393 12.4159 87.1785 12.3757 87.0017 12.3757C86.8892 12.3757 86.7767 12.3998 86.6642 12.448C86.6481 12.3355 86.5999 12.2551 86.5196 12.2069C86.4553 12.1587 86.3749 12.1185 86.2785 12.0864C86.1981 12.0382 86.1097 12.006 86.0133 11.99C85.9329 11.9578 85.8606 11.9096 85.7963 11.8453C85.7481 11.7167 85.6918 11.5881 85.6276 11.4596C85.5793 11.3149 85.4829 11.2104 85.3383 11.1462C85.1936 11.2908 85.0248 11.4114 84.832 11.5078C84.6391 11.5881 84.4382 11.6685 84.2293 11.7489C84.0364 11.8292 83.8435 11.9257 83.6507 12.0382C83.4739 12.1507 83.3212 12.2873 83.1926 12.448H82.7586C82.6622 12.6248 82.5256 12.7614 82.3488 12.8579C82.172 12.9382 82.0193 13.0588 81.8907 13.2195C81.6336 13.3481 81.3925 13.5088 81.1675 13.7017C80.9585 13.8785 80.7496 14.0713 80.5407 14.2803C80.3317 14.4731 80.1228 14.674 79.9138 14.883C79.721 15.0919 79.512 15.2848 79.287 15.4616C79.0781 15.9116 78.845 16.3054 78.5879 16.6429C78.3468 16.9643 78.1137 17.2938 77.8887 17.6313C77.6798 17.9689 77.495 18.3385 77.3342 18.7403C77.1896 19.1261 77.1173 19.6082 77.1173 20.1868V20.4279C77.1173 20.5083 77.1253 20.5886 77.1414 20.669C77.3503 20.894 77.5191 21.1351 77.6476 21.3923C77.7923 21.6494 78.0253 21.8343 78.3468 21.9468C78.6682 22.0753 79.0058 22.1316 79.3594 22.1155C79.729 22.0994 80.0826 22.1396 80.4201 22.2361C81.1916 22.0914 81.9309 21.8584 82.6381 21.5369C83.3614 21.1994 84.0444 20.7976 84.6873 20.3315C84.7838 20.2511 84.8963 20.1708 85.0248 20.0904C85.1534 19.994 85.2579 19.8975 85.3383 19.8011C85.4186 19.7207 85.4829 19.6323 85.5311 19.5359C85.5954 19.4395 85.6597 19.3511 85.724 19.2707C85.8526 19.0618 85.9972 18.8528 86.1579 18.6439C86.3187 18.435 86.4874 18.2421 86.6642 18.0653C86.7446 17.7117 86.8491 17.3742 86.9776 17.0527C87.1062 16.7152 87.2348 16.3857 87.3634 16.0643C87.4919 15.7428 87.5964 15.4134 87.6768 15.0758C87.7732 14.7383 87.8214 14.3847 87.8214 14.0151C87.8214 13.9347 87.8134 13.8463 87.7973 13.7499C87.7973 13.6534 87.7893 13.565 87.7732 13.4847C87.9018 13.3079 87.9661 13.115 87.9661 12.9061Z" fill="white"/>
<path d="M115.059 23.6344C114.979 23.8915 114.955 24.1487 114.987 24.4058C114.939 24.4701 114.882 24.5103 114.818 24.5264C114.754 24.5424 114.69 24.5665 114.625 24.5987C114.561 24.6148 114.505 24.6469 114.456 24.6951C114.424 24.7273 114.424 24.7996 114.456 24.9121C113.926 24.9442 113.339 23.996 112.857 24.1888C112.374 24.3817 111.9 24.5907 111.434 24.8157C111.193 24.7353 110.984 24.6389 110.807 24.5264C110.631 24.4139 110.406 24.3415 110.132 24.3094C109.859 23.7629 109.602 23.1924 109.361 22.5977C109.136 21.9869 109.023 21.3762 109.023 20.7654C109.023 20.3154 109.104 19.9056 109.264 19.5359C109.264 19.0537 109.305 18.5796 109.385 18.1135C109.465 17.6474 109.554 17.1894 109.65 16.7393C109.763 16.2732 109.859 15.8071 109.94 15.341C110.02 14.8749 110.06 14.4008 110.06 13.9186V13.3882C110.028 13.3882 109.988 13.4284 109.94 13.5088C109.891 13.5731 109.843 13.6534 109.795 13.7499C109.763 13.8302 109.731 13.9106 109.698 13.991C109.666 14.0713 109.642 14.1195 109.626 14.1356C109.353 14.3445 109.136 14.6097 108.975 14.9312C108.831 15.2366 108.67 15.5259 108.493 15.7991C108.268 16.1366 108.027 16.4661 107.77 16.7875C107.529 17.109 107.223 17.3581 106.854 17.5349V17.5831C106.854 17.6635 106.83 17.7197 106.781 17.7519C106.733 17.784 106.725 17.8644 106.757 17.993C106.355 18.1215 105.978 18.3064 105.624 18.5475C105.287 18.7885 105.005 19.0939 104.78 19.4636C104.459 19.5439 104.153 19.6565 103.864 19.8011C103.591 19.9297 103.31 20.0743 103.02 20.2351C102.892 20.2993 102.755 20.3797 102.611 20.4761C102.466 20.5726 102.321 20.6369 102.177 20.669C102.048 20.7172 101.871 20.7494 101.646 20.7654C101.437 20.7815 101.212 20.7976 100.971 20.8137C100.746 20.8297 100.521 20.8378 100.296 20.8378H99.7657C99.6854 20.8378 99.5809 20.7976 99.4523 20.7172C99.3238 20.6369 99.1791 20.5485 99.0184 20.452C98.8737 20.3556 98.721 20.2672 98.5603 20.1868C98.3996 20.0904 98.2469 20.0261 98.1023 19.994C97.9737 19.5761 97.7888 19.2064 97.5478 18.885C97.3227 18.5475 97.0817 18.2099 96.8245 17.8724C96.7441 17.4867 96.6316 17.0849 96.487 16.667C96.3584 16.2491 96.1254 15.9036 95.7878 15.6303C95.8682 15.5178 95.9084 15.3893 95.9084 15.2446C95.9084 15.0678 95.8682 14.899 95.7878 14.7383C95.7075 14.5776 95.6673 14.4008 95.6673 14.2079C95.6673 14.0794 95.6753 13.9829 95.6914 13.9186C95.5146 14.1115 95.386 14.3606 95.3057 14.666C95.2414 14.9553 95.2092 15.2205 95.2092 15.4616C95.2092 15.6544 95.2333 15.8312 95.2816 15.992C95.1208 16.217 95.0164 16.4982 94.9681 16.8358C94.936 17.1733 94.9199 17.4706 94.9199 17.7278C94.9199 18.0492 94.944 18.3626 94.9923 18.668C94.7351 18.9252 94.6065 19.2386 94.6065 19.6082C94.6065 19.8172 94.6547 20.002 94.7512 20.1627C94.7512 20.227 94.7351 20.2752 94.703 20.3074C94.6708 20.3395 94.6306 20.3636 94.5824 20.3797C94.5503 20.3958 94.5101 20.4199 94.4619 20.452C94.4297 20.4681 94.4137 20.5083 94.4137 20.5726C94.4137 20.6529 94.4137 20.7413 94.4137 20.8378C94.4297 20.9342 94.4378 21.0306 94.4378 21.1271C94.4378 21.3521 94.4297 21.5851 94.4137 21.8262C94.3976 22.0673 94.3895 22.3004 94.3895 22.5254C94.3895 22.9915 94.4297 23.329 94.5101 23.5379C94.6065 23.7308 94.719 23.8754 94.8476 23.9719C94.9923 24.0683 95.1449 24.1647 95.3057 24.2612C95.4664 24.3576 95.6271 24.5424 95.7878 24.8157C95.7396 24.9603 95.6512 25.0809 95.5226 25.1773C95.4101 25.2577 95.2976 25.3461 95.1851 25.4425C95.0887 25.5229 95.0003 25.6193 94.9199 25.7318C94.8396 25.8443 94.8074 26.005 94.8235 26.214H94.703C94.494 26.214 94.2931 26.2461 94.1002 26.3104C93.9074 26.3747 93.7065 26.4068 93.4975 26.4068C93.4493 26.4068 93.4011 26.3988 93.3529 26.3827C93.3047 26.3827 93.2564 26.3827 93.2082 26.3827L92.9671 26.2381C92.8868 26.1899 92.8064 26.1657 92.7261 26.1657C92.6457 26.1657 92.5412 26.1818 92.4126 26.214C92.1876 25.4907 92.0108 24.7433 91.8823 23.9719C91.7698 23.2004 91.7135 22.445 91.7135 21.7057C91.7135 21.6253 91.7296 21.545 91.7617 21.4646C91.8099 21.3682 91.8742 21.336 91.9546 21.3682V20.9101C91.9546 20.4119 91.9948 19.9297 92.0751 19.4636C92.1716 18.9814 92.2198 18.4832 92.2198 17.9689C92.2198 17.8242 92.2117 17.6796 92.1957 17.5349C92.1957 17.3903 92.1876 17.2536 92.1716 17.1251C92.2519 16.8518 92.3323 16.5786 92.4126 16.3054C92.5091 16.0161 92.5573 15.7187 92.5573 15.4134C92.5573 15.2848 92.5332 15.1321 92.485 14.9553C92.6136 14.8589 92.71 14.7383 92.7743 14.5937C92.8386 14.4329 92.8868 14.2642 92.9189 14.0874C92.9511 13.8945 92.9752 13.7097 92.9913 13.5329C93.0073 13.3561 93.0234 13.1954 93.0395 13.0507C93.2002 12.7293 93.2886 12.3837 93.3047 12.0141C93.3207 11.6444 93.4011 11.2988 93.5457 10.9774C93.5297 10.9131 93.5216 10.8006 93.5216 10.6399C93.5216 10.3184 93.5699 9.99699 93.6663 9.67554C93.7788 9.33802 93.9958 9.08086 94.3172 8.90407C94.6065 9.01657 94.944 9.07283 95.3298 9.07283C95.6994 9.07283 96.053 9.01657 96.3905 8.90407C96.487 8.93621 96.5754 8.97639 96.6557 9.02461C96.7361 9.05676 96.8165 9.09694 96.8968 9.14515C96.9933 9.1773 97.0897 9.20944 97.1861 9.24159C97.2826 9.25766 97.3951 9.25766 97.5236 9.24159C97.6844 9.70768 97.821 10.1818 97.9335 10.664C98.0621 11.1462 98.1585 11.6364 98.2228 12.1346C98.2549 12.3435 98.263 12.5686 98.2469 12.8096C98.2469 13.0507 98.263 13.2757 98.2951 13.4847C98.3112 13.6133 98.3514 13.7338 98.4157 13.8463C98.48 13.9427 98.5442 14.0552 98.6085 14.1838C98.6728 14.3124 98.721 14.4571 98.7532 14.6178C98.8014 14.7785 98.8175 14.9794 98.8014 15.2205C98.9782 15.6384 99.1711 16.0402 99.38 16.4259C99.605 16.7956 99.8461 17.1652 100.103 17.5349C100.248 17.5831 100.376 17.6474 100.489 17.7278C100.602 17.7921 100.674 17.9046 100.706 18.0653C100.851 18.0653 100.979 18.0894 101.092 18.1376L101.502 18.2582C102.112 18.0653 102.675 17.8081 103.189 17.4867C103.72 17.1652 104.274 16.892 104.853 16.667C105.56 15.9759 106.171 15.2125 106.685 14.3767C107.199 13.5249 107.714 12.6811 108.228 11.8453V11.3149C108.324 11.2667 108.405 11.2104 108.469 11.1462C108.549 11.0658 108.646 11.0095 108.758 10.9774C108.774 10.7845 108.814 10.5997 108.879 10.4229C108.959 10.23 109.039 10.0532 109.12 9.89252C109.216 9.71572 109.297 9.54696 109.361 9.38624C109.425 9.20944 109.457 9.02461 109.457 8.83174C109.457 8.71924 109.449 8.6228 109.433 8.54244C109.674 8.30136 109.964 8.18081 110.301 8.18081C110.623 8.18081 110.944 8.26118 111.265 8.4219C111.603 8.56655 111.916 8.70316 112.206 8.83174C112.383 9.21748 112.511 9.62732 112.591 10.0613C112.688 10.4792 112.752 10.9131 112.784 11.3631C112.816 11.8132 112.833 12.2632 112.833 12.7132V14.4249C112.816 14.5535 112.768 14.6499 112.688 14.7142C112.624 14.7624 112.575 14.8428 112.543 14.9553V15.1964C112.543 15.2767 112.535 15.3571 112.519 15.4375C112.519 15.775 112.479 16.1286 112.399 16.4982C112.318 16.9643 112.214 17.4385 112.085 17.9206C111.973 18.3867 111.916 18.8609 111.916 19.343C111.916 19.5198 111.924 19.6966 111.941 19.8734C111.957 20.0502 111.989 20.227 112.037 20.4038C111.957 20.5485 111.916 20.7333 111.916 20.9583C111.916 21.2155 111.957 21.4566 112.037 21.6816C112.133 21.8905 112.246 22.0994 112.374 22.3084C112.599 22.3084 112.825 22.3004 113.05 22.2843C113.275 22.2682 113.508 22.2602 113.749 22.2602C114.055 23.3209 114.264 23.3451 114.456 23.3933C114.649 23.4254 114.85 23.5058 115.059 23.6344Z" fill="white"/>
<path d="M132.395 18.451C132.234 18.4671 132.09 18.5073 131.961 18.5716C131.849 18.6359 131.728 18.6841 131.6 18.7162C131.616 18.7323 131.624 18.7564 131.624 18.7885C131.624 18.885 131.6 18.9573 131.551 19.0055C131.503 19.0377 131.495 19.118 131.527 19.2466C131.286 19.3752 131.037 19.4716 130.78 19.5359C130.523 19.6002 130.258 19.6565 129.984 19.7047C129.727 19.7529 129.47 19.8091 129.213 19.8734C128.956 19.9377 128.715 20.0422 128.49 20.1868V19.9216C128.297 20.0342 128.112 20.0904 127.935 20.0904C127.774 20.0904 127.622 20.0663 127.477 20.0181C127.332 19.9538 127.172 19.9216 126.995 19.9216C126.914 19.9216 126.81 19.9538 126.681 20.0181C126.521 20.002 126.392 19.9618 126.296 19.8975C126.215 19.8172 126.111 19.7368 125.982 19.6565C125.902 19.8172 125.781 19.9216 125.621 19.9699C125.476 20.002 125.339 20.0181 125.211 20.0181C125.034 20.0181 124.865 20.01 124.705 19.994C124.56 19.9779 124.415 19.9538 124.271 19.9216C124.013 20.002 123.772 20.0502 123.547 20.0663C123.322 20.0663 123.081 20.0663 122.824 20.0663C122.599 20.0663 122.382 20.0824 122.173 20.1145C121.98 20.1306 121.779 20.1868 121.57 20.2833C121.506 20.1226 121.37 20.0422 121.161 20.0422C121.064 20.0422 120.96 20.0502 120.847 20.0663C120.751 20.0663 120.654 20.0663 120.558 20.0663C120.397 20.0663 120.277 20.0181 120.196 19.9216C120.132 19.9538 120.1 20.01 120.1 20.0904C120.116 20.1708 120.116 20.2351 120.1 20.2833C119.859 20.1868 119.602 20.1386 119.328 20.1386C119.103 20.1386 118.886 20.1627 118.677 20.2109C118.468 20.2592 118.26 20.2833 118.051 20.2833C117.938 20.2833 117.826 20.2672 117.713 20.2351C117.601 20.2029 117.504 20.1868 117.424 20.1868C117.327 20.1868 117.255 20.2109 117.207 20.2592C117.159 20.2913 117.11 20.3315 117.062 20.3797C117.03 20.4119 116.982 20.452 116.917 20.5003C116.869 20.5324 116.797 20.5485 116.701 20.5485C116.524 20.5485 116.403 20.5003 116.339 20.4038C116.275 20.2913 116.178 20.219 116.05 20.1868C116.05 20.0261 116.025 19.8815 115.977 19.7529C115.929 19.6243 115.873 19.4957 115.808 19.3672C115.744 19.2225 115.688 19.0859 115.64 18.9573C115.592 18.8287 115.567 18.6841 115.567 18.5234C115.567 18.4751 115.567 18.4269 115.567 18.3787C115.583 18.3144 115.592 18.2582 115.592 18.2099C115.817 17.8885 116.138 17.6635 116.556 17.5349C116.99 17.3903 117.384 17.3179 117.737 17.3179C117.914 17.3179 118.043 17.3501 118.123 17.4144C118.219 17.4787 118.332 17.5671 118.46 17.6796C119.585 17.551 120.711 17.4626 121.836 17.4144C122.977 17.3661 124.11 17.3099 125.235 17.2456C125.605 17.2135 125.974 17.1894 126.344 17.1733C126.714 17.1411 127.083 17.109 127.453 17.0768C127.501 17.0768 127.533 17.0608 127.549 17.0286C127.565 16.9804 127.573 16.9322 127.573 16.884C127.59 16.8358 127.606 16.7956 127.622 16.7634C127.654 16.7313 127.702 16.7152 127.766 16.7152C127.943 16.7152 128.064 16.7715 128.128 16.884C128.192 16.9804 128.289 17.0447 128.417 17.0768C128.53 17.0126 128.658 16.9643 128.803 16.9322C128.964 16.9 129.116 16.8759 129.261 16.8599C129.406 16.8277 129.542 16.7956 129.671 16.7634C129.816 16.7152 129.936 16.6429 130.032 16.5465C130.161 16.5304 130.233 16.5625 130.249 16.6429C130.266 16.7072 130.314 16.7554 130.394 16.7875C130.474 16.7715 130.563 16.7554 130.659 16.7393C130.756 16.7072 130.844 16.6911 130.925 16.6911H131.093C131.158 16.6911 131.214 16.6991 131.262 16.7152C131.407 17.0367 131.592 17.326 131.817 17.5831C132.058 17.8403 132.25 18.1296 132.395 18.451Z" fill="white"/>
<path d="M167.918 31.0116C167.918 31.1883 167.877 31.3571 167.797 31.5178C167.476 31.6946 167.138 31.8152 166.784 31.8795C166.447 31.9598 166.109 32 165.772 32C165.611 32 165.434 31.992 165.241 31.9759C165.065 31.9759 164.904 31.9598 164.759 31.9277C164.711 31.9116 164.655 31.8795 164.591 31.8312C164.526 31.783 164.462 31.7589 164.398 31.7589C164.237 31.7589 164.084 31.783 163.94 31.8312C163.795 31.8955 163.642 31.9277 163.482 31.9277C163.401 31.9277 163.321 31.9036 163.24 31.8553C163.176 31.8071 163.104 31.775 163.024 31.7589C162.911 31.7268 162.799 31.7187 162.686 31.7348C162.573 31.7509 162.453 31.7589 162.324 31.7589C162.148 31.7589 161.987 31.7348 161.842 31.6866C161.714 31.6384 161.593 31.55 161.481 31.4214C161.079 31.3732 160.685 31.2928 160.299 31.1803C159.914 31.0839 159.528 30.9714 159.142 30.8428C158.756 30.7303 158.371 30.6178 157.985 30.5053C157.599 30.4088 157.205 30.3446 156.804 30.3124C156.707 30.1999 156.595 30.1115 156.466 30.0472C156.337 29.999 156.241 29.9106 156.177 29.782C156.096 29.782 156.04 29.7901 156.008 29.8061C155.976 29.8383 155.92 29.8543 155.839 29.8543C155.566 29.6293 155.269 29.4365 154.947 29.2757C154.642 29.115 154.32 28.9623 153.983 28.8177C153.661 28.673 153.34 28.5203 153.018 28.3596C152.713 28.215 152.424 28.0221 152.151 27.781H152.03C151.901 27.7971 151.789 27.7649 151.693 27.6846C151.612 27.6203 151.508 27.5881 151.379 27.5881C151.299 27.5881 151.234 27.5962 151.186 27.6123C151.138 27.4837 151.066 27.3792 150.969 27.2988C150.873 27.2185 150.768 27.1381 150.656 27.0578C150.559 26.9935 150.463 26.9211 150.367 26.8408C150.27 26.7765 150.198 26.6881 150.15 26.5756C149.748 26.4309 149.354 26.2541 148.968 26.0452C148.599 25.8523 148.269 25.5952 147.98 25.2737C147.658 25.2416 147.393 25.1452 147.184 24.9844C146.975 24.8076 146.782 24.5907 146.606 24.3335C146.22 24.2049 145.866 24.0362 145.545 23.8272C145.223 23.6183 144.902 23.4013 144.581 23.1763C144.275 22.9513 143.946 22.7504 143.592 22.5736C143.255 22.3807 142.869 22.2441 142.435 22.1637C142.419 22.0512 142.371 21.9709 142.29 21.9227C142.21 21.8584 142.113 21.8101 142.001 21.778C141.904 21.7298 141.808 21.6896 141.712 21.6575C141.615 21.6253 141.543 21.561 141.495 21.4646C141.446 21.4646 141.398 21.4646 141.35 21.4646C141.302 21.4485 141.254 21.4405 141.205 21.4405C141.157 21.4405 141.101 21.4485 141.037 21.4646C140.988 21.4646 140.94 21.4646 140.892 21.4646L140.916 21.3923C140.916 21.328 140.892 21.2878 140.844 21.2717C140.812 21.2556 140.763 21.2396 140.699 21.2235C140.635 21.2074 140.579 21.1833 140.53 21.1512C140.482 21.119 140.458 21.0467 140.458 20.9342H140.386C140.209 20.9342 140.048 20.9021 139.903 20.8378C139.759 20.7735 139.598 20.7253 139.421 20.6931C139.389 20.8699 139.373 21.0387 139.373 21.1994V21.6333C139.373 22.3566 139.453 23.12 139.614 23.9237C139.775 24.7112 140.024 25.4184 140.362 26.0452C140.699 26.1738 140.988 26.3425 141.229 26.5515C141.471 26.7604 141.704 27.0015 141.929 27.2747C141.945 27.7087 141.784 28.0703 141.446 28.3596C141.125 28.665 140.747 28.8177 140.313 28.8177C140.072 28.8177 139.847 28.7534 139.638 28.6248C139.445 28.5123 139.285 28.3435 139.156 28.1185C139.06 28.1185 138.971 28.1346 138.891 28.1668C138.811 28.215 138.714 28.2391 138.602 28.2391C138.553 28.2391 138.505 28.231 138.457 28.215C138.296 27.9417 138.136 27.7007 137.975 27.4917C137.83 27.2828 137.734 27.0015 137.685 26.6479C137.509 26.5676 137.396 26.4229 137.348 26.214C137.316 26.005 137.227 25.8363 137.083 25.7077C137.018 24.9844 136.93 24.2612 136.818 23.5379C136.721 22.8147 136.673 22.0914 136.673 21.3682C136.673 21.2074 136.681 21.0467 136.697 20.886C136.713 20.7092 136.729 20.5324 136.745 20.3556C136.713 20.2752 136.665 20.2029 136.601 20.1386C136.552 20.0583 136.512 19.9779 136.48 19.8975C136.159 19.9779 135.821 20.0583 135.468 20.1386C135.13 20.2029 134.784 20.2351 134.431 20.2351C134.206 20.2351 133.933 20.2029 133.611 20.1386C133.29 20.0583 133.041 19.9538 132.864 19.8252C132.735 19.7449 132.647 19.6002 132.599 19.3913C132.534 19.1662 132.502 18.9734 132.502 18.8127C132.502 18.5394 132.55 18.2662 132.647 17.993C132.743 17.7037 132.872 17.4545 133.033 17.2456C133.82 16.9242 134.551 16.5304 135.226 16.0643C135.918 15.5982 136.593 15.0919 137.252 14.5455C137.268 14.3847 137.292 14.224 137.324 14.0633C137.372 13.9026 137.396 13.7338 137.396 13.557C137.396 13.3641 137.348 13.1793 137.252 13.0025C137.348 12.9061 137.396 12.7855 137.396 12.6409C137.396 12.4802 137.436 12.3355 137.517 12.2069V12.0623C137.517 11.998 137.509 11.9337 137.493 11.8694C137.493 11.8051 137.469 11.7408 137.42 11.6765C137.533 11.0497 137.621 10.4309 137.685 9.82019C137.75 9.19337 137.782 8.55048 137.782 7.89151C137.782 7.8433 137.806 7.71472 137.854 7.50578C137.919 7.28076 137.959 7.12808 137.975 7.04771C138.039 6.67805 138.079 6.31642 138.095 5.96283C138.127 5.59317 138.168 5.22351 138.216 4.85384C138.232 4.72526 137.418 4.71723 137.467 4.50829C137.515 4.29935 137.539 4.1547 137.539 4.07433C137.539 3.96183 137.515 3.8895 137.467 3.85736C137.434 3.80914 137.402 3.73682 137.37 3.64038C137.467 3.27072 138.361 2.74033 138.361 2.37067C138.377 1.98493 138.409 1.60723 138.457 1.23757C138.73 1.12506 138.947 1.01256 139.108 0.90005C139.269 0.787544 139.502 0.731291 139.807 0.731291H139.855C139.887 0.924159 139.96 1.10899 140.072 1.28579C140.185 1.44651 140.297 1.61527 140.41 1.79206C140.538 1.95279 140.651 2.11351 140.747 2.27423C140.844 2.41889 140.892 2.56354 140.892 2.70819C140.892 2.98142 140.868 3.27875 140.82 3.6002C140.771 3.92165 140.731 4.21899 140.699 4.49221C140.619 5.21547 140.546 5.93069 140.482 6.63787C140.418 7.32898 140.321 8.03616 140.193 8.75942C140.241 8.98443 140.265 9.19337 140.265 9.38624C140.265 9.67554 140.241 9.96484 140.193 10.2541C140.145 10.5434 140.12 10.8408 140.12 11.1462C140.12 11.2908 140.128 11.4435 140.145 11.6042C140.177 11.7649 140.225 11.9096 140.289 12.0382C140.836 11.8935 141.326 11.5962 141.76 11.1462C141.824 11.0819 141.888 11.0015 141.953 10.9051C142.033 10.7926 142.113 10.7042 142.194 10.6399C142.355 10.5113 142.523 10.3988 142.7 10.3024C142.893 10.1899 143.078 10.0773 143.255 9.96484C143.672 9.69161 144.074 9.41035 144.46 9.12104C144.862 8.81567 145.264 8.51833 145.665 8.22903C146.855 7.36113 148.004 6.46107 149.113 5.52888C150.238 4.58061 151.331 3.58413 152.392 2.53943C152.44 2.2662 152.536 2.04922 152.681 1.8885C152.826 1.72778 152.954 1.53491 153.067 1.30989C153.372 1.19739 153.637 1.02863 153.862 0.803616C153.959 0.835761 154.055 0.859869 154.152 0.875942C154.264 0.875942 154.369 0.875942 154.465 0.875942C154.578 0.875942 154.682 0.883978 154.778 0.90005C154.891 0.90005 154.987 0.924159 155.068 0.972376C155.084 1.21346 155.108 1.43044 155.14 1.6233C155.172 1.81617 155.269 2.001 155.429 2.1778C155.429 2.20994 155.429 2.24209 155.429 2.27423C155.445 2.30638 155.453 2.33852 155.453 2.37067C155.453 2.54746 155.405 2.69211 155.309 2.80462C155.212 2.91713 155.156 3.05374 155.14 3.21446L153.886 4.46811C153.469 4.88599 153.083 5.33601 152.729 5.81818C152.601 5.83425 152.488 5.87443 152.392 5.93872C152.295 6.00301 152.199 6.07534 152.102 6.1557C152.022 6.21999 151.934 6.28428 151.837 6.34857C151.741 6.41286 151.636 6.46108 151.524 6.49322C151.234 6.87896 150.905 7.23255 150.535 7.55399C150.166 7.85937 149.788 8.15671 149.402 8.44601C149.016 8.73531 148.631 9.03265 148.245 9.33802C147.875 9.62732 147.53 9.94877 147.208 10.3024C146.871 10.4631 146.541 10.656 146.22 10.881C145.915 11.0899 145.665 11.3551 145.473 11.6765H145.352C145.272 11.6765 145.207 11.7007 145.159 11.7489C145.111 11.781 145.047 11.7971 144.966 11.7971C144.098 12.5525 143.198 13.2677 142.266 13.9427C141.334 14.6017 140.442 15.325 139.59 16.1125V16.7152C139.863 16.8759 140.161 17.0286 140.482 17.1733C140.804 17.3019 141.117 17.4465 141.422 17.6072C141.744 17.768 142.041 17.9448 142.314 18.1376C142.604 18.3144 142.853 18.5314 143.062 18.7885C143.094 18.7725 143.134 18.7644 143.182 18.7644C143.327 18.7644 143.439 18.8127 143.52 18.9091C143.6 18.9895 143.737 19.0136 143.93 18.9814C143.994 19.2386 144.139 19.4234 144.364 19.5359C144.589 19.6484 144.814 19.7449 145.039 19.8252C145.231 20.0181 145.408 20.2029 145.569 20.3797C145.73 20.5404 145.963 20.6449 146.268 20.6931C146.3 20.7574 146.324 20.8297 146.34 20.9101C146.357 20.9905 146.389 21.0628 146.437 21.1271C146.742 21.2235 147.032 21.3601 147.305 21.5369C147.594 21.7137 147.875 21.8985 148.149 22.0914C148.422 22.2682 148.695 22.445 148.968 22.6218C149.258 22.7825 149.563 22.9111 149.884 23.0075C149.933 23.1683 150.021 23.2808 150.15 23.3451C150.294 23.4093 150.407 23.5058 150.487 23.6344H150.921C150.969 23.7147 151.034 23.7951 151.114 23.8754C151.194 23.9397 151.251 24.0362 151.283 24.1647C151.411 24.1969 151.556 24.2451 151.717 24.3094C151.877 24.3576 152.022 24.4219 152.151 24.5023C152.199 24.5505 152.231 24.6067 152.247 24.671C152.279 24.7353 152.327 24.7916 152.392 24.8398C152.488 24.9201 152.633 24.9844 152.826 25.0326C153.035 25.0648 153.211 25.121 153.356 25.2014C153.645 25.3621 153.927 25.5389 154.2 25.7318C154.473 25.9407 154.762 26.1336 155.068 26.3104L156.008 26.8167C156.169 26.897 156.313 26.9854 156.442 27.0819C156.587 27.1783 156.731 27.2667 156.876 27.3471C157.165 27.4756 157.471 27.556 157.792 27.5881C158.129 27.6364 158.435 27.7248 158.708 27.8533C158.788 27.9016 158.845 27.9578 158.877 28.0221C158.909 28.1025 158.965 28.1668 159.046 28.215C159.174 28.2953 159.375 28.3516 159.648 28.3837C159.922 28.4159 160.147 28.4721 160.323 28.5525C160.548 28.6489 160.765 28.7373 160.974 28.8177C161.199 28.9141 161.424 29.0266 161.649 29.1552C162.132 29.1873 162.606 29.2436 163.072 29.324C163.554 29.4043 164.028 29.4847 164.494 29.565C164.96 29.6454 165.426 29.7177 165.892 29.782C166.375 29.8463 166.857 29.8704 167.339 29.8543C167.339 29.8865 167.355 29.9026 167.387 29.9026C167.435 29.9186 167.476 29.9267 167.508 29.9267C167.62 30.1035 167.717 30.2803 167.797 30.4571C167.877 30.6339 167.918 30.8187 167.918 31.0116Z" fill="white"/>
</svg>
